<?xml version="1.0" encoding="utf-8"?>
<!-- Generator: Adobe Illustrator 26.5.0, SVG Export Plug-In . SVG Version: 6.00 Build 0)  -->
<svg version="1.1" id="Capa_1" xmlns="http://www.w3.org/2000/svg" xmlns:xlink="http://www.w3.org/1999/xlink" x="0px" y="0px"
	 viewBox="0 0 30 30" style="enable-background:new 0 0 30 30;" xml:space="preserve">
<style type="text/css">
	.st0{fill:#FFFFFF;}
</style>
<path class="st0" d="M10,24c0,0.1-0.1,0.2-0.3,0.2c-0.2,0-0.3-0.1-0.3-0.2c0-0.1,0.1-0.2,0.3-0.2C9.9,23.7,10,23.8,10,24z M8.2,23.7
	c0,0.1,0.1,0.3,0.3,0.3c0.2,0.1,0.3,0,0.4-0.1c0-0.1-0.1-0.3-0.3-0.3C8.4,23.5,8.2,23.6,8.2,23.7z M10.8,23.6
	c-0.2,0-0.3,0.2-0.3,0.3c0,0.1,0.2,0.2,0.4,0.2c0.2,0,0.3-0.2,0.3-0.3C11.2,23.6,11,23.6,10.8,23.6z M14.8,0.3C6.4,0.3,0,6.7,0,15.1
	c0,6.7,4.2,12.5,10.3,14.5c0.8,0.1,1-0.3,1-0.7c0-0.4,0-2.5,0-3.7c0,0-4.2,0.9-5.1-1.8c0,0-0.7-1.8-1.7-2.2c0,0-1.4-1,0.1-0.9
	c0,0,1.5,0.1,2.3,1.6c1.3,2.3,3.5,1.7,4.4,1.3c0.1-1,0.5-1.6,1-2c-3.4-0.4-6.8-0.9-6.8-6.7c0-1.7,0.5-2.5,1.4-3.6
	c-0.2-0.4-0.7-2,0.2-4.1c1.3-0.4,4.2,1.6,4.2,1.6c1.2-0.3,2.5-0.5,3.8-0.5s2.6,0.2,3.8,0.5c0,0,2.9-2,4.2-1.6
	c0.8,2.1,0.3,3.7,0.2,4.1c1,1.1,1.6,1.9,1.6,3.6c0,5.9-3.6,6.3-6.9,6.7c0.6,0.5,1,1.4,1,2.8c0,2,0,4.6,0,5.1c0,0.4,0.3,0.9,1,0.7
	c6-2,10.1-7.8,10.1-14.5C30,6.7,23.2,0.3,14.8,0.3z M5.9,21.3c-0.1,0.1-0.1,0.2,0,0.3c0.1,0.1,0.2,0.1,0.3,0.1
	c0.1-0.1,0.1-0.2,0-0.3C6.1,21.2,6,21.2,5.9,21.3z M5.2,20.8c0,0.1,0,0.2,0.1,0.2c0.1,0.1,0.2,0,0.3,0c0-0.1,0-0.2-0.1-0.2
	C5.4,20.7,5.3,20.7,5.2,20.8z M7.2,22.9c-0.1,0.1-0.1,0.3,0.1,0.4c0.1,0.1,0.3,0.2,0.4,0.1c0.1-0.1,0-0.3-0.1-0.4
	C7.4,22.8,7.3,22.8,7.2,22.9z M6.5,22c-0.1,0.1-0.1,0.2,0,0.4c0.1,0.1,0.3,0.2,0.3,0.1c0.1-0.1,0.1-0.2,0-0.4C6.8,22,6.6,22,6.5,22z
	"/>
</svg>
