<?xml version="1.0" encoding="utf-8"?>
<!-- Generator: Adobe Illustrator 26.5.0, SVG Export Plug-In . SVG Version: 6.00 Build 0)  -->
<svg version="1.1" id="Capa_1" xmlns="http://www.w3.org/2000/svg" xmlns:xlink="http://www.w3.org/1999/xlink" x="0px" y="0px"
	 viewBox="0 0 30 30" style="enable-background:new 0 0 30 30;" xml:space="preserve">
<style type="text/css">
	.st0{fill:#FFFFFF;}
	.st1{fill:#0D3274;}
</style>
<circle class="st0" cx="15" cy="15" r="15"/>
<path class="st1" d="M15,10.3c-2.7,0-4.7,2.1-4.7,4.7s2.1,4.7,4.7,4.7s4.7-2.1,4.7-4.7S17.7,10.3,15,10.3z M15,18.1
	c-1.7,0-3.1-1.3-3.1-3.1s1.3-3.1,3.1-3.1s3.1,1.3,3.1,3.1S16.7,18.1,15,18.1L15,18.1z M21,10.1c0,0.6-0.5,1.1-1.1,1.1
	c-0.6,0-1.1-0.5-1.1-1.1c0-0.6,0.5-1.1,1.1-1.1S21,9.5,21,10.1z M24.1,11.2c-0.1-1.5-0.4-2.8-1.5-3.9c-1.1-1.1-2.4-1.4-3.9-1.5
	c-1.5-0.1-6-0.1-7.6,0C9.7,5.9,8.4,6.2,7.3,7.3s-1.4,2.4-1.5,3.9s-0.1,6,0,7.6c0.1,1.5,0.4,2.8,1.5,3.9c1.1,1.1,2.4,1.4,3.9,1.5
	s6,0.1,7.6,0c1.5-0.1,2.8-0.4,3.9-1.5c1.1-1.1,1.4-2.4,1.5-3.9C24.2,17.3,24.2,12.7,24.1,11.2L24.1,11.2z M22.2,20.4
	c-0.3,0.8-0.9,1.4-1.8,1.8c-1.3,0.5-4.1,0.4-5.4,0.4s-4.3,0.1-5.4-0.4c-0.8-0.3-1.4-0.9-1.8-1.8c-0.5-1.3-0.4-4.1-0.4-5.4
	s-0.1-4.3,0.4-5.4c0.3-0.8,0.9-1.4,1.8-1.8c1.3-0.5,4.1-0.4,5.4-0.4s4.3-0.1,5.4,0.4c0.8,0.3,1.4,0.9,1.8,1.8
	c0.5,1.3,0.4,4.1,0.4,5.4S22.6,19.3,22.2,20.4z"/>
</svg>
