<?xml version="1.0" encoding="UTF-8"?>
<svg id="b" data-name="Capa 2" xmlns="http://www.w3.org/2000/svg" viewBox="0 0 1772.64 272">
  <defs>
    <style>
      .d {
        fill: #073274;
      }

      .e {
        fill: #8094b5;
      }

      .f {
        fill: #8a9fbe;
      }

      .g {
        fill: #ebeef3;
      }

      .h {
        fill: #fff;
      }

      .i {
        fill: #abb8c9;
      }

      .j {
        fill: #5e7aa5;
      }

      .k {
        fill: #748aae;
      }

      .l {
        fill: #a4b6cd;
      }

      .m {
        fill: #859bbb;
      }

      .n {
        fill: #1a3f7a;
      }

      .o {
        fill: #062c69;
      }

      .p {
        fill: #18407e;
      }

      .q {
        fill: #c6cedd;
      }

      .r {
        fill: #26477d;
      }

      .s {
        fill: #c8d3e1;
      }

      .t {
        fill: #b2bed2;
      }

      .u {
        fill: #0e3878;
      }

      .v {
        fill: #dfe4ec;
      }

      .w {
        fill: #dbe2eb;
      }

      .x {
        fill: #8c9fbc;
      }

      .y {
        fill: #6079a2;
      }

      .z {
        fill: #92a3b9;
      }

      .aa {
        fill: #395b90;
      }

      .ab {
        fill: #8a9dbb;
      }

      .ac {
        fill: #afbcd1;
      }

      .ad {
        fill: #1f437d;
      }

      .ae {
        fill: #ecf0f5;
      }

      .af {
        fill: #e5eaf1;
      }

      .ag {
        fill: #072d5f;
      }

      .ah {
        fill: #34537c;
      }

      .ai {
        fill: #778ca7;
      }

      .aj {
        fill: #0d3472;
      }

      .ak {
        fill: #bdcadb;
      }

      .al {
        fill: #b2c1d5;
      }

      .am {
        fill: #8196b8;
      }

      .an {
        fill: #9cadc7;
      }

      .ao {
        fill: #5b78a3;
      }

      .ap {
        fill: #748cb1;
      }

      .aq {
        fill: #3b5d91;
      }

      .ar {
        fill: #98acc7;
      }

      .as {
        fill: #a7b8cf;
      }

      .at {
        fill: #839bbb;
      }

      .au {
        fill: #7e94b7;
      }

      .av {
        fill: #cdd5e1;
      }

      .aw {
        fill: #eef0f5;
      }

      .ax {
        fill: #456287;
      }

      .ay {
        fill: #aab7cc;
      }

      .az {
        fill: #e1e6ee;
      }

      .ba {
        fill: #0d326e;
      }

      .bb {
        fill: #56719c;
      }

      .bc {
        fill: #7187aa;
      }

      .bd {
        fill: #153b77;
      }

      .be {
        fill: #153972;
      }

      .bf {
        fill: #7c92b5;
      }

      .bg {
        fill: #062e6e;
      }

      .bh {
        fill: #99abc6;
      }

      .bi {
        fill: #e7f1fb;
      }

      .bj {
        fill: #a8b5cb;
      }

      .bk {
        fill: #d2d9e4;
      }

      .bl {
        fill: #b4c0d4;
      }

      .bm {
        fill: #8397b7;
      }

      .bn {
        fill: #8194ad;
      }

      .bo {
        fill: #8d9eb5;
      }

      .bp {
        fill: #a6b5cd;
      }

      .bq {
        fill: #8fa1be;
      }

      .br {
        fill: #d0d7e3;
      }

      .bs {
        fill: #6f88ae;
      }

      .bt {
        fill: #eaeef3;
      }

      .bu {
        fill: #91a2bd;
      }

      .bv {
        fill: #a1b1ca;
      }

      .bw {
        fill: #d7dee8;
      }

      .bx {
        fill: #a8b6c7;
      }

      .by {
        fill: #10346f;
      }

      .bz {
        fill: #1f4178;
      }

      .ca {
        fill: #e9ecf2;
      }

      .cb {
        fill: #274d86;
      }

      .cc {
        fill: #597294;
      }
    </style>
  </defs>
  <g id="c" data-name="Capa 1">
    <g>
      <polygon class="bi" points="302.96 136.53 302.96 121 299.92 121 299.92 94.29 283.63 94.29 283.63 121 268.39 121 268.39 77.48 251.57 77.48 251.57 105.73 247.74 105.73 247.74 72 230.93 72 230.93 135.24 209.66 135.24 209.66 172.11 201.72 172.11 201.72 155.7 183.47 155.7 183.47 165.4 172.99 165.4 172.99 121.94 160.04 121.94 160.04 154.11 147.1 154.11 147.1 272 160.04 272 171.14 272 172.99 272 183.47 272 189.39 272 198.88 272 201.72 272 209.66 272 217.13 272 230.93 272 235.15 272 243.56 272 247.74 272 251.57 272 260.38 272 266.37 272 268.39 272 283.63 272 299.65 272 299.92 272 302.96 272 315.95 272 315.95 136.53 302.96 136.53"/>
      <polygon class="bi" points="479.46 203.48 479.46 272 316.29 272 316.29 212.37 328.8 212.37 328.8 196.1 341.3 196.1 341.3 218.09 351.43 218.09 351.43 213.18 369.07 213.18 369.07 221.48 376.75 221.48 376.75 202.83 397.29 202.83 397.29 170.84 413.54 170.84 413.54 187.9 417.25 187.9 417.25 173.61 433.5 173.61 433.5 195.63 448.22 195.63 448.22 182.12 463.97 182.12 463.97 195.63 466.91 195.63 466.91 203.48 479.46 203.48"/>
      <polygon class="bi" points="148.76 176.97 148.76 272 0 272 0 189.3 11.4 189.3 11.4 166.74 22.81 166.74 22.81 197.23 32.04 197.23 32.04 190.41 48.12 190.41 48.12 201.93 55.12 201.93 55.12 176.06 73.85 176.06 73.85 131.71 88.66 131.71 88.66 155.36 92.04 155.36 92.04 135.55 106.85 135.55 106.85 166.07 120.28 166.07 120.28 147.34 134.64 147.34 134.64 166.07 137.32 166.07 137.32 176.97 148.76 176.97"/>
      <polygon class="bi" points="783.96 158.92 783.96 145.95 780.92 145.95 780.92 123.66 764.63 123.66 764.63 145.95 749.39 145.95 749.39 109.63 732.57 109.63 732.57 133.21 728.74 133.21 728.74 105.05 711.93 105.05 711.93 157.84 690.66 157.84 690.66 188.62 682.72 188.62 682.72 174.92 664.47 174.92 664.47 183.02 653.99 183.02 653.99 146.74 641.04 146.74 641.04 173.59 628.1 173.59 628.1 272 641.04 272 652.14 272 653.99 272 664.47 272 670.39 272 679.88 272 682.72 272 690.66 272 698.13 272 711.93 272 716.15 272 724.56 272 728.74 272 732.57 272 741.38 272 747.37 272 749.39 272 764.63 272 780.65 272 780.92 272 783.96 272 796.95 272 796.95 158.92 783.96 158.92"/>
      <polygon class="bi" points="960.46 203.48 960.46 272 797.29 272 797.29 212.37 809.8 212.37 809.8 196.1 822.3 196.1 822.3 218.09 832.43 218.09 832.43 213.18 850.07 213.18 850.07 221.48 857.75 221.48 857.75 202.83 878.29 202.83 878.29 170.84 894.54 170.84 894.54 187.9 898.25 187.9 898.25 173.61 914.5 173.61 914.5 195.63 929.22 195.63 929.22 182.12 944.97 182.12 944.97 195.63 947.91 195.63 947.91 203.48 960.46 203.48"/>
      <polygon class="bi" points="627.76 176.97 627.76 272 479 272 479 189.3 490.4 189.3 490.4 166.74 501.81 166.74 501.81 197.23 511.04 197.23 511.04 190.41 527.12 190.41 527.12 201.93 534.12 201.93 534.12 176.06 552.85 176.06 552.85 131.71 567.66 131.71 567.66 155.36 571.04 155.36 571.04 135.55 585.85 135.55 585.85 166.07 599.28 166.07 599.28 147.34 613.64 147.34 613.64 166.07 616.32 166.07 616.32 176.97 627.76 176.97"/>
      <polygon class="bi" points="1441.29 203.48 1441.29 272 1604.46 272 1604.46 212.37 1591.95 212.37 1591.95 196.1 1579.44 196.1 1579.44 218.09 1569.31 218.09 1569.31 213.18 1551.68 213.18 1551.68 221.48 1544 221.48 1544 202.83 1523.45 202.83 1523.45 170.84 1507.2 170.84 1507.2 187.9 1503.5 187.9 1503.5 173.61 1487.25 173.61 1487.25 195.63 1472.53 195.63 1472.53 182.12 1456.77 182.12 1456.77 195.63 1453.84 195.63 1453.84 203.48 1441.29 203.48"/>
      <polygon class="bi" points="1136.78 158.92 1136.78 145.95 1139.82 145.95 1139.82 123.66 1156.12 123.66 1156.12 145.95 1171.36 145.95 1171.36 109.63 1188.17 109.63 1188.17 133.21 1192 133.21 1192 105.05 1208.82 105.05 1208.82 157.84 1230.08 157.84 1230.08 188.62 1238.03 188.62 1238.03 174.92 1256.28 174.92 1256.28 183.02 1266.76 183.02 1266.76 146.74 1279.7 146.74 1279.7 173.59 1292.64 173.59 1292.64 272 1279.7 272 1268.61 272 1266.76 272 1256.28 272 1250.36 272 1240.87 272 1238.03 272 1230.08 272 1222.62 272 1208.82 272 1204.59 272 1196.18 272 1192 272 1188.17 272 1179.37 272 1173.38 272 1171.36 272 1156.12 272 1140.09 272 1139.82 272 1136.78 272 1123.8 272 1123.8 158.92 1136.78 158.92"/>
      <polygon class="bi" points="1616.78 158.92 1616.78 145.95 1619.82 145.95 1619.82 123.66 1636.12 123.66 1636.12 145.95 1651.36 145.95 1651.36 109.63 1668.17 109.63 1668.17 133.21 1672 133.21 1672 105.05 1688.82 105.05 1688.82 157.84 1710.08 157.84 1710.08 188.62 1718.03 188.62 1718.03 174.92 1736.28 174.92 1736.28 183.02 1746.76 183.02 1746.76 146.74 1759.7 146.74 1759.7 173.59 1772.64 173.59 1772.64 272 1759.7 272 1748.61 272 1746.76 272 1736.28 272 1730.36 272 1720.87 272 1718.03 272 1710.08 272 1702.62 272 1688.82 272 1684.59 272 1676.18 272 1672 272 1668.17 272 1659.37 272 1653.38 272 1651.36 272 1636.12 272 1620.09 272 1619.82 272 1616.78 272 1603.8 272 1603.8 158.92 1616.78 158.92"/>
      <polygon class="bi" points="960.29 178.53 960.29 272 1123.46 272 1123.46 190.66 1110.95 190.66 1110.95 168.46 1098.44 168.46 1098.44 198.45 1088.31 198.45 1088.31 191.75 1070.68 191.75 1070.68 203.08 1063 203.08 1063 177.63 1042.45 177.63 1042.45 134 1026.2 134 1026.2 157.27 1022.5 157.27 1022.5 137.78 1006.25 137.78 1006.25 167.81 991.53 167.81 991.53 149.38 975.77 149.38 975.77 167.81 972.84 167.81 972.84 178.53 960.29 178.53"/>
      <polygon class="bi" points="1292.99 176.97 1292.99 272 1441.74 272 1441.74 189.3 1430.34 189.3 1430.34 166.74 1418.94 166.74 1418.94 197.23 1409.71 197.23 1409.71 190.41 1393.63 190.41 1393.63 201.93 1386.63 201.93 1386.63 176.06 1367.89 176.06 1367.89 131.71 1353.08 131.71 1353.08 155.36 1349.7 155.36 1349.7 135.55 1334.89 135.55 1334.89 166.07 1321.46 166.07 1321.46 147.34 1307.11 147.34 1307.11 166.07 1304.43 166.07 1304.43 176.97 1292.99 176.97"/>
      <g>
        <g>
          <path class="bf" d="M1441.32,29.29v20.87c0,2.63-.66,4.77-1.48,4.77h-.21c-.81,0-1.48-2.14-1.48-4.77V31.62c1.06-.78,2.11-1.55,3.17-2.33Z"/>
          <path class="bf" d="M1438.91,46.51c-11.54,0-20.89,9.89-20.89,22.09h41.78c0-12.2-9.35-22.09-20.89-22.09Z"/>
          <path class="bv" d="M1440.58,46.78c-.6-.13-1.21-.2-1.83-.2-7.52,0-13.61,9.86-13.61,22.02h3.67c0-11.15,5.13-20.37,11.77-21.82Z"/>
        </g>
        <g>
          <path class="bf" d="M1563.75,9.69v59.98c0,.53,0,1.04-.02,1.54-.11,4.68-.73,8.27-1.46,8.27h-.21c-.68,0-1.26-3.1-1.43-7.27-.01-.34-.03-.7-.03-1.06,0-.02,0-.05,0-.08,0-.46-.01-.93-.01-1.41V9.42c1.07,.07,2.12,.16,3.17,.28Z"/>
          <path class="bf" d="M1561.34,71.06c-11.54,0-20.89,9.89-20.89,22.09h41.78c0-12.2-9.35-22.09-20.89-22.09Z"/>
          <path class="bv" d="M1563.01,71.33c-.6-.13-1.21-.2-1.83-.2-7.52,0-13.61,9.86-13.61,22.02h3.67c0-11.15,5.13-20.37,11.77-21.82Z"/>
        </g>
        <g>
          <g>
            <path class="ab" d="M1694.53,239.18s-5.27-6.14-.32-10.05c0,0,3.61-2.19,6.55-2.01,0,0-4.17,6.99-2.82,7.69,1.35,.7,4.09-8.13,4.09-8.13,0,0,8.21-.8,10.86,.47,0,0-7.02,5.75-5.54,6.09,1.48,.34,9.06-5.3,9.06-5.3,0,0,7.65,1.3,7.24,5.97-.41,4.66-3.04,6.1-4.2,5.98-1.16-.12-7.93-2.71-8.08-1.76-.15,.95,3.93,4.05,6.78,4.19,0,0-5.39,5.94-8.97,4.23-3.58-1.72-3.89-4.44-6.12-5.45-2.23-1.02-4.14-1.02-3.22,.02,.92,1.04,4.96,2.05,6.24,4.31,1.28,2.26,2.42,3.78-1.28,3.22-3.71-.56-9.73-3.27-10-6.38l-.26-3.11Z"/>
            <g>
              <path class="ab" d="M1719.88,234.04s-20.77-.8-25.35,5.14c0,0-1.01,3.04-4.14,5.8l-.49,1.33s3.6-3.79,4.89-4.02c0,0-2.01-7.36,25.09-8.24Z"/>
              <path class="ab" d="M1690.4,244.98s-4.46,3.3-4.77,9.19l.81,.07s1.42-6.09,4-8.47c2.57-2.38-.04-.79-.04-.79Z"/>
            </g>
          </g>
          <g>
            <path class="t" d="M1676.12,231.45s8.38-4.69,4.47-11.06c0,0-3.13-3.91-6.48-4.91,0,0,1.79,9.49,0,9.72-1.79,.22-1.23-10.72-1.23-10.72,0,0-8.82-4.24-12.29-3.91,0,0,5.47,9.27,3.69,9.05-1.79-.22-7.93-9.61-7.93-9.61,0,0-9.05-1.68-10.5,3.69-1.45,5.36,.89,8.04,2.23,8.38,1.34,.34,9.94,.22,9.72,1.34-.22,1.12-6.03,2.9-9.27,1.9,0,0,3.57,8.82,8.27,8.38,4.69-.45,6.14-3.35,9.05-3.57,2.9-.22,5.03,.56,3.57,1.34-1.45,.78-6.37,.26-8.71,2.25-2.35,1.99-4.24,3.22,.11,4.12,4.36,.89,12.18,.34,13.74-3.02l1.56-3.35Z"/>
            <g>
              <path class="ab" d="M1649.98,215.36s23.46,7.6,26.14,16.09c0,0-.11,3.8,2.23,8.15v1.68s-2.46-5.7-3.8-6.48c0,0,5.25-7.37-24.58-19.44Z"/>
              <path class="ab" d="M1678.35,239.6s3.62,5.49,1.56,12.18l-.93-.25s.9-7.37-.99-11.07c-1.89-3.7,.36-.86,.36-.86Z"/>
            </g>
          </g>
          <g>
            <path class="t" d="M1689.45,224.98s-11.04-6.18-5.89-14.58c0,0,4.12-5.15,8.54-6.48,0,0-2.36,12.52,0,12.81,2.36,.29,1.62-14.14,1.62-14.14,0,0,11.63-5.6,16.2-5.15,0,0-7.22,12.22-4.86,11.93,2.36-.29,10.45-12.66,10.45-12.66,0,0,11.93-2.21,13.84,4.86,1.91,7.07-1.18,10.6-2.94,11.04-1.77,.44-13.11,.29-12.81,1.77,.29,1.47,7.95,3.83,12.22,2.5,0,0-4.71,11.63-10.9,11.04-6.18-.59-8.1-4.42-11.93-4.71-3.83-.29-6.63,.74-4.71,1.77s8.39,.34,11.49,2.97c3.09,2.63,5.6,4.25-.15,5.43s-16.05,.44-18.11-3.98l-2.06-4.42Z"/>
            <g>
              <path class="ab" d="M1723.9,203.77s-30.92,10.01-34.46,21.2c0,0,.15,5.01-2.94,10.75v2.21s3.24-7.51,5.01-8.54c0,0-6.92-9.72,32.39-25.62Z"/>
              <path class="ab" d="M1686.5,235.73s-4.77,7.24-2.05,16.06l1.23-.33s-1.19-9.71,1.3-14.59-.48-1.13-.48-1.13Z"/>
            </g>
          </g>
          <path class="m" d="M1689.07,270.9c11.95,0,21.63-9.69,21.63-21.63h-43.27c0,11.95,9.69,21.63,21.63,21.63Z"/>
          <path class="bp" d="M1694.4,270.73c-.88,.11-1.78,.17-2.69,.17-11.95,0-21.63-9.69-21.63-21.63h5.37c0,11.04,8.27,20.14,18.95,21.47Z"/>
          <path class="m" d="M1711,272h-43.86c0-1.47,1.19-2.67,2.67-2.67h38.53c1.47,0,2.67,1.19,2.67,2.67h0Z"/>
          <rect class="aa" x="1666.73" y="249.27" width="44.47" height=".66"/>
        </g>
        <g>
          <path class="am" d="M1598.14,204.21c.39-9.53,1.24-17.83,2.25-23.61,1.62-9.22,3.07-14.52,3.09-14.58,.21-.81,3.29-4.09,10.13-3.99,6.84,.1,6.19,4.4,6.19,4.4h0c0,.15-.02,.28-.05,.38-.07,.22-6.34,22.67-6.07,51.66,0,.41,.05,1.11,.02,1.58,0,0-15.85,.4-15.85,0-.55-2.53-.28-9.55,.29-15.85Z"/>
          <path class="bp" d="M1596.15,218.34c0,.4,.22,.73,.48,.73h0c.26,0,.47-.33,.48-.73h13.58c0,.4,.22,.73,.48,.73h0c.27,0,.48-.34,.48-.75-.08-8.3,.4-16.05,1.13-22.88,1.81-17.05,5.14-28.45,5.19-28.61,.03-.1,.05-.24,.05-.38,0,0,.65-4.3-6.19-4.4-6.84-.1-9.91,3.18-10.13,3.99-.01,.04-.84,3.05-1.93,8.44-.36,1.79-.75,3.84-1.16,6.13-1.01,5.78-1.86,14.08-2.25,23.61-.57,6.29-.78,11.59-.22,14.12Z"/>
          <path class="an" d="M1596.15,218.34c0,.4,.22,.73,.48,.73h0c.26,0,.47-.33,.48-.73h13.58c0,.4,.22,.73,.48,.73h0c.27,0,.48-.34,.48-.75-.08-8.3,.4-16.05,1.13-22.88-2.25-10.82-10.92-19.1-13.01-20.96-.36,1.79-.75,3.84-1.16,6.13-1.01,5.78-1.86,14.08-2.25,23.61-.57,6.29-.78,11.59-.22,14.12Z"/>
          <path class="am" d="M1609.83,218.2l-.04-.03s-.02-.01-.02-.07h0c0-.11-.03-.2-.11-.28-.43-.44-2.07-.42-4.16-.4-2.27,.03-5.1,.06-7.92-.43-1.46-.25-.47-11.33,.56-21.69,.18-1.76,.31-3.15,.38-3.97,.67-8.81,4.57-24.46,4.61-24.58,.17-.66,2.52-3.1,7.6-3.02,1.92,.03,3.29,.5,4.05,1.4,.77,.91,.63,1.92,.63,1.96,0,.1-.01,.21-.04,.29-.02,.09-3.54,20.32-4.11,25.17-.95,8.01-1.32,24.57-1.34,25.49,0,.01,0,.02,0,.03v.05s-.08,.05-.08,.05Zm-3.03-.94c1.52,0,2.59,.07,2.97,.45h0c0-.38,.03-1.09,.06-2.44,.04-1.58,.12-4.06,.23-6.85,.2-4.88,.53-11.6,1.04-15.87,.59-4.98,4.1-25.14,4.12-25.2,.02-.07,.03-.17,.03-.26,0-.02,.14-.99-.59-1.85-.74-.87-2.06-1.32-3.93-1.35-5-.07-7.29,2.27-7.45,2.91-.04,.14-3.93,15.72-4.61,24.55-.06,.82-.2,2.21-.38,3.97-.69,6.9-2.13,21.27-.69,21.52,2.81,.49,5.63,.45,7.89,.43,.46,0,.9-.01,1.3-.01Z"/>
          <path class="bp" d="M1612.67,219.06h-53.24s1.24-4.95,32.08-4.21c21.82,.52,21.17,4.21,21.17,4.21Z"/>
          <path class="am" d="M1617,270.76c-6.17-30.83-4.59-49.74-4.58-49.98,.02-.47-.87-.91-1.35-.92-.48,0-2.61-.14-2.86,.27-.32,.53-1.57,23.84,7.63,50.64h1.15Z"/>
          <path class="am" d="M1567.29,270.76c6.17-30.83,4.59-49.74,4.58-49.98-.02-.47,.87-.91,1.35-.92,.48,0,2.61-.14,2.86,.27,.32,.53,1.57,23.84-7.63,50.64h-1.15Z"/>
          <path class="aq" d="M1557.44,270.76c6.17-30.83,4.59-49.74,4.58-49.98-.02-.47,.87-.91,1.35-.92,.48,0,2.61-.14,2.86,.27,.32,.53,1.57,23.84-7.63,50.64h-1.15Z"/>
          <path class="aq" d="M1607.08,270.76c-6.17-30.83-4.59-49.74-4.58-49.98,.02-.47-.87-.91-1.35-.92-.48,0-2.61-.14-2.86,.27-.32,.53-1.57,23.84,7.63,50.64h1.15Z"/>
          <rect class="am" x="1558.3" y="217.78" width="55.43" height="2.86" rx="1.08" ry="1.08" transform="translate(3172.03 438.43) rotate(180)"/>
        </g>
        <g>
          <path class="am" d="M1396.64,203.29c.39-9.66,1.24-18.07,2.25-23.93,1.62-9.35,3.07-14.72,3.09-14.78,.21-.82,3.29-4.15,10.13-4.04,6.84,.1,6.19,4.46,6.19,4.46h0c0,.15-.02,.28-.05,.39-.07,.22-6.34,22.98-6.07,52.37,0,.41,.05,1.13,.02,1.6,0,0-15.85,.41-15.85,0-.55-2.57-.28-9.68,.29-16.06Z"/>
          <path class="bp" d="M1394.64,217.61c0,.41,.22,.74,.48,.74h0c.26,0,.47-.33,.48-.74h13.58c0,.41,.22,.74,.48,.74h0c.27,0,.48-.34,.48-.76-.08-8.41,.4-16.27,1.13-23.2,1.81-17.29,5.14-28.84,5.19-29,.03-.1,.05-.24,.05-.39,0,0,.65-4.36-6.19-4.46-6.84-.1-9.91,3.22-10.13,4.05-.01,.04-.84,3.09-1.93,8.56-.36,1.81-.75,3.89-1.16,6.22-1.01,5.86-1.86,14.27-2.25,23.93-.57,6.38-.78,11.75-.22,14.32Z"/>
          <path class="an" d="M1394.64,217.61c0,.41,.22,.74,.48,.74h0c.26,0,.47-.33,.48-.74h13.58c0,.41,.22,.74,.48,.74h0c.27,0,.48-.34,.48-.76-.08-8.41,.4-16.27,1.13-23.2-2.25-10.97-10.92-19.36-13.01-21.25-.36,1.81-.75,3.89-1.16,6.22-1.01,5.86-1.86,14.27-2.25,23.93-.57,6.38-.78,11.75-.22,14.32Z"/>
          <path class="am" d="M1408.33,217.47l-.04-.03s-.02-.01-.02-.07h0c0-.12-.03-.21-.11-.29-.43-.44-2.07-.42-4.15-.4-2.27,.03-5.1,.06-7.92-.44-1.46-.26-.47-11.48,.56-21.98,.18-1.79,.32-3.2,.38-4.03,.67-8.89,4.57-24.79,4.61-24.92,.17-.67,2.52-3.15,7.6-3.06,1.91,.03,3.27,.5,4.04,1.41,.79,.93,.65,1.96,.64,2,0,.1-.01,.21-.04,.3-.02,.09-3.54,20.6-4.11,25.52-.95,8.11-1.32,24.91-1.34,25.85,0,.01,0,.02,0,.03v.05s-.08,.05-.08,.05Zm-3.03-.95c1.52,0,2.59,.07,2.96,.46,0,0,0,0,0,0,0-.39,.03-1.11,.06-2.48,.04-1.61,.12-4.11,.23-6.94,.2-4.95,.53-11.76,1.04-16.09,.59-5.03,4.1-25.48,4.12-25.55,.02-.07,.03-.17,.03-.27,0-.02,.14-1.02-.61-1.89-.74-.87-2.06-1.32-3.92-1.35-.08,0-.15,0-.23,0-4.84,0-7.06,2.31-7.22,2.95-.04,.15-3.93,15.95-4.61,24.89h-.08s.08,0,.08,0c-.06,.83-.2,2.24-.38,4.03-.69,7-2.13,21.56-.69,21.81,2.81,.49,5.63,.46,7.89,.43,.46,0,.9-.01,1.3-.01Z"/>
          <path class="bp" d="M1411.16,218.34h-53.24s1.24-5.02,32.08-4.27c21.82,.53,21.17,4.27,21.17,4.27Z"/>
          <path class="am" d="M1415.5,270.75c-6.17-31.25-4.59-50.43-4.58-50.67,.02-.48-.87-.92-1.35-.93-.48,0-2.61-.14-2.86,.27-.32,.54-1.57,24.17,7.63,51.34h1.15Z"/>
          <path class="am" d="M1365.78,270.75c6.17-31.25,4.59-50.43,4.58-50.67-.02-.48,.87-.92,1.35-.93,.48,0,2.61-.14,2.86,.27,.32,.54,1.57,24.17-7.63,51.34h-1.15Z"/>
          <path class="aq" d="M1355.93,270.75c6.17-31.25,4.59-50.43,4.58-50.67-.02-.48,.87-.92,1.35-.93,.48,0,2.61-.14,2.86,.27,.32,.54,1.57,24.17-7.63,51.34h-1.15Z"/>
          <path class="aq" d="M1405.58,270.75c-6.17-31.25-4.59-50.43-4.58-50.67,.02-.48-.87-.92-1.35-.93-.48,0-2.61-.14-2.86,.27-.32,.54-1.57,24.17,7.63,51.34h1.15Z"/>
          <rect class="am" x="1356.8" y="217.05" width="55.43" height="2.9" rx="1.09" ry="1.09" transform="translate(2769.02 436.99) rotate(180)"/>
        </g>
        <g>
          <g>
            <path class="bq" d="M1431.39,177.92s4.4,1.79,7.53-2.7c0,0-5.08-.86-7.53,2.7Z"/>
            <path class="bq" d="M1431.08,176.08s-.31-1.57-2.15-1.63c0,0,.69,1.59,2.15,1.63Z"/>
            <path class="bq" d="M1432.01,166.88s2.13,.23,2.93-2.11c0,0-2.31,.26-2.93,2.11Z"/>
            <g>
              <path class="bq" d="M1437.07,135.98c-4.3-.92-4.38-4.44-4.38-4.44,5.07,1.6,4.38,4.44,4.38,4.44Z"/>
              <path class="bq" d="M1437.36,135.17s2.69,1.09,4.59-1.65c0,0-3.1-.53-4.59,1.65Z"/>
              <path class="bq" d="M1431.47,188.25l-.56,.64c-.08,.1-.24,.04-.24-.09,.03-18.12,2.33-34.22,4.26-43.72,2.11-10.37,4.25-16.5,4.27-16.56h0c-.02,.06-1.95,6.29-4.05,16.63-1.94,9.52-4.15,21.95-3.59,42.86,0,.09-.03,.18-.09,.24Z"/>
              <path class="bf" d="M1439.17,126.05c-.69,.55-3.32,2.9-.77,4.72,0,0,1.95,.62,2.6-.89,.49-1.15,.63-2.43,.66-2.97,0-.14-.1-.26-.24-.27-.15-.01-.35-.05-.55-.13-.24-.09-.36-.46-.69-.54-.2-.05-.41-.09-.65-.07-.13,.01-.26,.07-.37,.15Z"/>
              <path class="bq" d="M1437.71,130.11s.78,.62,.49,1.62v.37s.2-.92,1.15-1.21c0,0-.86,.1-1.64-.78Z"/>
              <path class="bl" d="M1437.07,135.98c-4.3-.92-4.38-4.44-4.38-4.44,0,0,3.41,1.87,4.38,4.44Z"/>
            </g>
            <g>
              <path class="bq" d="M1432.93,133.57s-2.71,1.04-4.56-1.74c0,0,3.11-.46,4.56,1.74Z"/>
              <path class="bq" d="M1437.76,186.75l.54,.65c.08,.1,.24,.04,.25-.09,.33-18.12-1.65-34.26-3.39-43.8-1.9-10.41-3.92-16.58-3.94-16.64h0c.02,.06,1.82,6.33,3.72,16.7,1.74,9.55,3.71,22.03,2.73,42.92,0,.09,.03,.18,.09,.25Z"/>
              <path class="bf" d="M1431.31,124.41c.68,.57,3.26,2.97,.67,4.73,0,0-1.97,.58-2.58-.94-.47-1.16-.58-2.44-.6-2.99,0-.14,.1-.26,.24-.27,.15-.01,.35-.04,.55-.11,.24-.09,.37-.45,.7-.53,.21-.05,.41-.09,.65-.06,.13,.01,.26,.08,.36,.16Z"/>
              <path class="bq" d="M1432.69,128.49s-.79,.61-.52,1.61v.37s-.19-.93-1.14-1.23c0,0,.86,.11,1.66-.75Z"/>
            </g>
            <g>
              <path class="bq" d="M1434.08,130.39s2.86,.48,4.12-2.61c0,0-3.14,.16-4.12,2.61Z"/>
              <path class="bq" d="M1439.9,183.48l-.4,.75c-.06,.11-.23,.09-.26-.04-3.92-17.69-5.19-33.91-5.37-43.6-.2-10.58,.55-17.03,.56-17.09h0c0,.06-.53,6.56-.33,17.11,.19,9.71,.74,22.33,5.84,42.61,.02,.09,0,.18-.04,.26Z"/>
              <path class="bf" d="M1433.85,121.09c-.55,.69-2.6,3.56,.28,4.77,0,0,2.04,.18,2.35-1.43,.23-1.23,.08-2.51,0-3.05-.02-.14-.15-.23-.29-.22-.15,.02-.35,.03-.57,0-.26-.04-.46-.37-.79-.38-.21,0-.42,0-.65,.07-.13,.04-.24,.13-.32,.23Z"/>
              <path class="bq" d="M1433.31,125.37s.9,.44,.83,1.47l.07,.36s0-.94,.87-1.43c0,0-.82,.28-1.78-.4Z"/>
            </g>
            <path class="bq" d="M1436.44,127.21s0-2.26,1.95-2.97c0,0,.43,1.89-1.95,2.97Z"/>
            <path class="au" d="M1431.86,123.57s.06-1.73-1.54-2.23c0,0-.38,1.61,1.54,2.23Z"/>
            <path class="au" d="M1437.1,133.96c.06,.05,.83-1.68-.74-3.07,0,0-.66,1.85,.74,3.07Z"/>
            <path class="bq" d="M1438.2,133.83s-.01-.86,.81-.99c0,0,.14,.73-.81,.99Z"/>
            <path class="bq" d="M1430.03,130.89s-.69-1.43-2.9-1.18c0,0,.33,1.54,2.9,1.18Z"/>
          </g>
          <path class="bf" d="M1442.27,190.37h-14.19c-.95,0-1.68-.85-1.55-1.79l6.6-45.52c.06-.42,.43-.74,.86-.74h2.11c.46,0,.85,.33,.91,.79l6.76,45.52c.14,.92-.58,1.74-1.5,1.74Z"/>
          <path class="bv" d="M1431.22,188.99l3.51-46.66c-.38,.05-.68,.34-.74,.73l-6.6,45.52c-.14,.94,.59,1.79,1.55,1.79h2.84c-.37-.33-.59-.83-.55-1.38Z"/>
        </g>
        <g>
          <path class="bv" d="M1570.37,185.4s-9.73,11.12-11.73,10.94c-2.04-.19-3.28-.83-5.05,0-1.27,.59-5.3,3.83-4.22,3.62,1.08-.21,3.03-.46,3.55-.51,.71-.07,1.85-.08,2.62-.22,.49-.09,2.26-.14,2.85-.15,2.56-.08,14.68-7.16,14.68-7.16l-2.71-6.5Z"/>
          <g>
            <path class="cb" d="M1554.35,173.53c-.39-.24-1.14-.15-1.68-.03v-.79c0-.17-.01-.35-.03-.52h-8.18c-.02,.17-.03,.34-.03,.52v1.61c0,2.27,1.86,4.12,4.12,4.12,1.23,0,2.33-.55,3.09-1.4h0s1.95-.48,2.56-1.2c.61-.73,.81-1.9,.16-2.3Zm-.43,1.48c-.21,.53-1.13,.82-1.59,.93,.18-.42,.3-.88,.33-1.36,.28-.39,.73-.61,1.06-.55,.29,.05,.47,.3,.21,.98Z"/>
            <path class="j" d="M1545.09,172.71v1.61c0,2.27,1.86,4.12,4.12,4.12,.19,0,.37-.01,.55-.04-2.01-.27-3.57-2-3.57-4.08v-1.61c0-.17,.01-.35,.03-.52h-1.11c-.02,.17-.03,.34-.03,.52Z"/>
            <rect class="cb" x="1546.86" y="178.08" width="3.37" height=".5"/>
          </g>
          <path class="n" d="M1577.12,128.95s.44-5.58,8.47-4.13c2.12,.38,3.58-3.4,7.06-2.05,7.48,2.91,7.92-.93,10.09,4.45,.91,2.25,6.66,4.88,4.9,8.77-1.76,3.89,1.18,6.51-.88,9.56-1.07,1.58-.63,4.4-5.68,4.5-2.51,.05-6.43,4.71-9.25,5.55-2.82,.85-11.29-.37-10.97-4.24,.25-3.02-3.27-2.77-5.44-6.24-1.89-3.03,1.48-3.8-.32-8.7-1.32-3.59,2.12-4.47,2.02-7.47Z"/>
          <g>
            <path class="bv" d="M1532.97,266.31c.17,1.87-2.43,2.32-5.44,2.47-3.01,.15-2.1,.77-6.23,1.51-4.13,.75-5.78-.38-6.08-.94-.27-.49,1.65-1.27,3.7-2.14,.26-.11,.52-.22,.77-.33,2.3-1.01,3.59-3.08,5.39-4.99,1.7-1.81,3.31-7.62,3.31-7.62l5.61-1.2s-1.57,5.22-2.12,7.45c-.32,1.31,.15,2.78,.57,3.89,.23,.61,.46,1.23,.52,1.89Z"/>
            <path class="cb" d="M1527.53,268.78c-3.01,.15-2.1,.77-6.23,1.51-4.13,.75-5.78-.38-6.08-.94-.27-.49,1.65-1.27,3.7-2.14l.03,.03s2.9,.99,6.25,.07c2.73-.74,5.37-2.37,7.25-2.9,.23,.61,.46,1.23,.52,1.89,.17,1.87-2.43,2.32-5.44,2.47Z"/>
          </g>
          <path class="bg" d="M1582.63,195.6s-31.08,1.4-38.1,5.82c-7.02,4.43-18.27,56.01-18.27,56.01,0,0,.69,.56,2.25,.72,1.44,.16,4.62-.69,4.62-.69,0,0,16.17-23.08,17.31-28.89,1.14-5.81,.86-11,3.45-11.14,2.59-.14,34.93,3.93,39.82-4.69,4.89-8.62-11.08-17.15-11.08-17.15Z"/>
          <g>
            <path class="bv" d="M1545.8,266.52c.17,1.87-2.43,2.32-5.44,2.47s-2.1,.77-6.23,1.51c-4.13,.75-5.78-.38-6.08-.94-.27-.49,1.65-1.27,3.7-2.14,.26-.11,.52-.22,.77-.33,2.3-1.01,3.59-3.08,5.39-4.99,1.7-1.81,3.31-7.62,3.31-7.62l5.61-1.2s-1.57,5.22-2.12,7.45c-.32,1.31,.15,2.78,.57,3.89,.23,.61,.46,1.23,.52,1.89Z"/>
            <path class="cb" d="M1540.36,268.99c-3.01,.15-2.1,.77-6.23,1.51-4.13,.75-5.78-.38-6.08-.94-.27-.49,1.65-1.27,3.7-2.14l.03,.03s2.9,.99,6.25,.07c2.73-.74,5.37-2.37,7.25-2.9,.23,.61,.46,1.23,.52,1.89,.17,1.87-2.43,2.32-5.44,2.47Z"/>
          </g>
          <path class="n" d="M1594.68,196.34s-33.11,1.57-39.95,6.26c-6.84,4.7-16.07,56.67-16.07,56.67,0,0,.72,.53,2.27,.64,1.45,.1,4.59-.87,4.59-.87,0,0,15.26-23.69,16.17-29.54,.91-5.85,.43-11.03,3.02-11.27,2.59-.24,35.05,2.57,39.61-6.23,4.55-8.8-9.64-15.66-9.64-15.66Z"/>
          <path class="bv" d="M1604.59,154.04s-.03-.03-.04-.05c-.26-.3-.58-.57-.92-.81h-.01s0,0,0,0c-2.7-1.89-7.54-2.29-7.54-2.29h0s0,0,0,0c0,0-.53-.05-1.36-.09-.63-1.64-1.35-4.08-1.58-7.62l-.48,.13-8.06,2.16s.36,2.56,.52,4.98c.04,.53,.06,1.05,.08,1.54-.23,.09-5.25,.79-6.34,1.96-1.09,1.17-3.27,8.97-3.82,10.36l31.01,.51s.78-8.1-1.46-10.76Z"/>
          <path class="bq" d="M1605.74,209.51c-3.67,.35-16.05-7.12-20.17-9.55-.07-.04-.14-.08-.21-.12-1.72-1.01-4.13-1.49-6.43-1.87-2.93-.48-5.66-.8-6.53-1.85-1.04-1.25,2.02-2.63,4.48-4.06,1.24-.72,2.33-1.46,2.67-2.2,.26-.58,.24-1.85,.07-3.47h0c-.03-.31-.07-.62-.11-.95-.2,.42-.45,.85-.74,1.28-.72,1.08-1.68,2.17-2.63,3.08-1.17,1.11-2.33,1.93-3.05,2.11-.49,.12-.97,.06-1.46-.13-1.29-.5-2.53-1.92-3.52-3.29-.23-.32-.45-.64-.65-.95-.67-1.02-1.15-1.87-1.33-2.07-.55-.61,2.21-1.81,3.34-2.72,1.13-.91,5.58-18.46,5.58-18.46,.55-1.38,2.73-9.18,3.82-10.36,0,0,4.25,5.19,9.76,4.89,5.47-.29,14.84-5.57,14.99-5.65,.48,.22,.98,.87,.98,.87,2.24,2.65,1.46,10.76,1.46,10.76,0,0-4.29,18.9-4.29,20.81,0,3.5,2.89,11.54,4.27,17.33,.88,3.67,1.15,6.43-.3,6.57Z"/>
          <path class="f" d="M1584.6,145.45s.36,2.56,.52,4.98c4.56-.43,6.7-4.76,7.53-7.14l-8.06,2.16Z"/>
          <path class="bv" d="M1583.22,147.84s10.82-.54,10.38-7.27c-.44-6.73,.66-11.34-6.27-11.28-6.93,.06-8.1,2.72-8.5,5-.4,2.28,1.56,13.52,4.39,13.55Z"/>
          <path class="n" d="M1582.77,131.69s2.59-.6,3.43,.65c.85,1.26,.24,1.96,2.13,2.49,1.89,.53,2.53,.49,2.34,1.81s1.9,2.3,1.99,3.36c.09,1.06,.96,1.58,1.79,1.66,.83,.08,.45-13.62-2.75-14.22-3.21-.6-6.3,.11-7.24,.87-.94,.75-1.67,3.38-1.67,3.38Z"/>
          <path class="n" d="M1582.77,131.69s-2.52-.18-2.97,1.26c-.45,1.43,.15,1.77-.49,2.64-.64,.87-.27,2.41-.27,2.41,0,0-4.97-9.16,.27-9.76,5.24-.6,5.11,.47,3.46,3.46Z"/>
          <path class="k" d="M1579.48,183.29c-.72,2.16-2,4.53-3.35,6.51-1.17,1.11-2.33,1.93-3.05,2.11-.49,.12-.97,.06-1.46-.13-1.29-.5-2.53-1.92-3.52-3.29-.23-.32-.45-.64-.65-.95,3.44-2.76,9.95-9.07,10.63-17.7,.93-11.79,1.45,14,1.4,13.46Z"/>
          <path class="k" d="M1571.62,191.77c1.2-1.83,3.64-3.63,7.14-5.05-1.61,2.41-4.37,4.86-5.68,5.18-.49,.12-.97,.06-1.46-.13Z"/>
          <path class="k" d="M1600.22,169.07s-2.7,27.15-14.66,30.88c-.07-.04-.14-.08-.21-.12-1.72-1.01-4.13-1.49-6.43-1.87-2.93-.48-5.66-.8-6.53-1.85-1.04-1.25,2.02-2.63,4.48-4.06,1.24-.72,2.33-1.46,2.67-2.2,.26-.58,.24-1.85,.07-3.47h0c11.6-4.29,20.61-17.32,20.61-17.32Z"/>
          <path class="bv" d="M1603.27,161.04c-1.25-5.64-6.93-2.41-6.93-2.41-1.97-.45-16.43,22.98-17.58,23.51-.98,.45-14.31-3.42-18.35-4.61-1.04-.82-4.71-3.67-5.36-3.72-.75-.06-5.76,1.23-5.73,2.03,.03,.8,1.21,1.96,3.06,2.26,1.4,.22,3.78,1.15,5.3,1.38h0s14.71,10.02,20.97,11.24c5.64,1.1,25.89-24.04,24.64-29.69Z"/>
          <path class="bq" d="M1569.94,180.19s-3.39,8.71,.67,12.02c4.06,3.31,12.87,2.2,22.53-11.27,9.65-13.46,13.58-20.79,8.57-22.93-5.01-2.14-9.15,1.22-11.72,6.45-2.67,5.44-7.6,12.98-10.55,13.27-2.95,.29-9.5,2.46-9.5,2.46Z"/>
        </g>
        <g>
          <path class="bv" d="M1484.95,98.32v1.31s-.35,4.11,4.71,4.71c5.06,.6,9.22,.52,9.08-2.65-.46-2.46-1.27-6.27-1.31-8.3-.01-.76,.04-1.56,.18-2.46l-9.81-.2-2.89,.47,.04,7.11Z"/>
          <path class="bs" d="M1484.91,91.2l.04,7.11c1.04,.48,2.22,.78,3.54,.78,4.51,0,7.42-3.31,8.95-5.71-.01-.76,.04-1.56,.18-2.46l-9.81-.2-2.89,.47Z"/>
          <path class="bv" d="M1498.36,89.35c-1.14,6.13-9.04,5.93-12.46,5.54-.96-.11-1.57-.23-1.57-.23-1.08-.29-1.69-2-1.97-4.23-.56-4.43,.15-10.92,.89-12.59,1.13-2.5,3.25-5.21,11.21-3.25,7.96,1.95,5.36,6.91,3.9,14.76Z"/>
          <path class="aj" d="M1504.83,270.76h-11.2c.08-.59,.37-2.37,.89-4.02,.18-.57,.39-1.13,.63-1.61,1.09-2.17,8.01-.79,8.01-.79,0,0,.64,.55,1.14,2.65,.22,.93,.42,2.16,.52,3.77Z"/>
          <path class="aj" d="M1470.98,267.22c-.03,1.52-.22,2.97-.78,3.54h-22.16c.28-.8,1.08-2.01,3.35-2.38,2.58-.42,6.61-1.66,8.97-4.15,.84-.88,1.46-1.93,1.74-3.14,1.04-4.64,8.62,1.42,8.62,1.42,0,0,.31,2.44,.26,4.71Z"/>
          <path class="ad" d="M1485.72,217.05c-.31,1.7-.5,3.09-.56,4.09-.7,13.74-11.57,45.16-13.51,45.89-3.01,1.13-7.74-1.28-10.22-2.07-1.03-.33-1.72-1.36-1.49-2.41,5.38-24.73,7.36-60.34,8.08-81.42,.36-10.62,2.19-17.95,2.19-17.95,0,0,26.49-7.07,26.65,1.87,.14,7.91-8.78,38.94-11.14,52Z"/>
          <path class="aj" d="M1485.72,217.05l-17.7-35.91c.36-10.62,2.19-17.95,2.19-17.95,0,0,26.49-7.07,26.65,1.87,.14,7.91-8.78,38.94-11.14,52Z"/>
          <path class="ad" d="M1479.82,165.08l14.01,101.5s6.15,1.48,10.93,.3c0,0,4.1-53.98,3.76-67.04-.34-13.05,2.94-34.92-.75-37.33-3.69-2.41-27.95,2.57-27.95,2.57Z"/>
          <path class="aj" d="M1480.82,72.01s3.5-.27,7.64-2.07c3.35-1.46,7.59,.15,8.96,.87-.04-.22-.13-.52-.34-.83,0,0,.62,.44,.71,1.05,.06,.05,.09,.08,.08,.09,0,0,.7-.13,1.15,.07,0,0-.31-.04-.43,.16-.01,.02-.03,.04-.05,.06,5.23,2.53,5.72,10.8,4.03,12.71-2.03,2.3-4.46,7.49-4.46,7.49,0,0-.89-1.22-.52-3.25,.37-2.03-1.38-2.03-3.59-2.95-2.21-.92-.37-3.5-2.3-5.07-1.93-1.57-9.03-.64-8.93-1.84-2.63-.96-1.95-6.23-1.95-6.5Z"/>
          <path class="aw" d="M1499.93,103.46l-3.22,69.18s-26.91,.44-26.14-5.65c.77-6.09,9.7-61.42,9.7-61.42l19.67-2.12Z"/>
          <path class="bd" d="M1509.54,142.67c-1.6,4.8,1.42,20.92,2.49,26.38,.24,1.15,.39,1.84,.39,1.84-3.73,6.06-17.38,5.98-17.38,5.98-2.62-11.6-3.99-30.08-3.99-30.08l10.47-45.91,13.18,12.18s-1,7.43-2.23,14.99c-.97,5.98-2.07,12.07-2.94,14.62Z"/>
          <path class="h" d="M1487.15,90.36s-.26,.79-2.25,.5c0,0-1.67-.24-1.55-1.12,0,0,1.68-.5,3.8,.62Z"/>
          <path class="bd" d="M1472.02,104.44s0,.01,0,.03c-.64,.62-18.6,18.06-22.08,24.89-3.54,6.93,16.2,20.74,16.2,20.74,0,0,1.27,.5,2.15,.31-.93,7.66-1.98,14.73-1.36,17.75,1.12,5.45,6.16,7.29,6.16,6.87,0-.13,1.85-19.82,2.85-30.09,2.15-22.03,7.53-43.91,7.53-43.91-5.87,.61-11.45,3.42-11.45,3.42Zm-10.7,27.91s-.03-.08-.03-.11c0-1,3.81-3.2,7.93-5.8,.05-.05,.08-.08,.08-.08,0,0,0,0,0,0-.07,2.12-.07,4.21,.06,6.15,.23,3.6-.03,7.89-.46,12.27-1.96-3.06-7.2-11.3-7.59-12.43Z"/>
          <g>
            <path class="az" d="M1500.7,100.8c.03-.66-3.09-1.57-3.09-1.57,0,0-3.58,4.96-9.48,5.05,0,0,1.68,3.27,3.66,4.12,0,0,8.72-3.67,8.91-7.59Z"/>
            <path class="az" d="M1488.13,104.16s-3.12-1.85-3.13-3.86c0,0-2.02-.25-2.9,.73,0,0-.74,3.44,.24,5.44,0,0,4.5-.69,5.79-2.31Z"/>
            <path class="p" d="M1490.25,103.87l-4.24-1.02s-.55,.05-.54,.74c.02,.69,1.19,2.71,1.71,2.87,.52,.16,4.06-1.19,3.06-2.59Z"/>
            <path class="aw" d="M1500.2,100.46c.03-.66-2.08-2.02-2.08-2.02,0,0-4.1,4.79-9.99,4.87,0,0,1.68,3.27,3.66,4.12,0,0,8.22-3.05,8.42-6.97Z"/>
            <path class="aw" d="M1488.13,103.32s-3.16-1.67-3.17-3.68c0,0-1.91,.84-2.79,1.82,0,0-.82,2.17,.17,4.17,0,0,4.5-.69,5.79-2.31Z"/>
            <g>
              <path class="cb" d="M1479.84,151.04c.14,1.62,.89,3.12,2.08,4.22l1.88,1.73c.47,.43,1.21,.37,1.61-.13l2.32-2.95c.62-.79,.92-1.79,.82-2.8-.22-2.23-.62-6.54-.95-10.69-.26-3.37-.48-6.64-.49-8.62-.05-6.35,1.21-26.6,1.21-26.6l-1.52,.08s-3.78,7.86-5.76,18.56c-.49,2.63-.87,5.44-1.05,8.34,0,0-.79,11.57-.14,18.87Z"/>
              <path class="p" d="M1479.84,151.04c.14,1.62,.89,3.12,2.08,4.22l1.88,1.73c.47,.43,1.21,.37,1.61-.13l2.32-2.95c.62-.79,.92-1.79,.82-2.8-.22-2.23-.62-6.54-.95-10.69-4.21-4.73-5.91-11.26-6.57-16.59-.49,2.63-.87,5.44-1.05,8.34,0,0-.79,11.57-.14,18.87Z"/>
            </g>
          </g>
          <path class="bv" d="M1464.87,151.23c0-1.76,1.55-3.18,3.29-2.91,.48,.07,.92,.27,1.22,.68,1.2,1.6,2.34,6.24,.22,6.46-.87,.09-1.98-.52-2.83-1.17-.87-.66-1.9-1.7-1.9-2.79v-.26Z"/>
          <path class="aj" d="M1512.04,169.05c-3.86-4.02-10.53-11.92-10.29-18.4,.31-9.08,10.74-22.6,10.74-22.6-.97,5.98-2.07,12.07-2.94,14.62-1.6,4.8,1.42,20.92,2.49,26.38Z"/>
          <path class="bv" d="M1511.91,153.26s-2.77,1.39-4.46,.69c-1.68-.69-3.67-1.21-5.55,.93-1.88,2.14-2.28,3.63-1.88,4.42,.4,.79,4.78,.5,5.51,0,.73-.5,1.88-1.71,2.61-1.5,2.02,.59,3.71-.95,4.66-2.18,.57-.74-.97-1.1-.9-2.36Z"/>
          <path class="bd" d="M1501.54,100.89s11.05,1.22,13.65,6.03c2.61,4.81,16.15,24.31,15.71,32.41-.44,8.1-18.48,17.19-18.48,17.19,0,0-4-1.69-4.05-3.5-.06-1.82,12.47-12.67,11.71-14.7-.76-2.03-14.56-18.05-15.89-23.33s-2.65-14.1-2.65-14.1Z"/>
          <path class="aj" d="M1469.3,126.37s-.03,.03-.08,.08c-4.12,2.6-7.93,4.8-7.93,5.8-.55-1.76,4.8-9.11,6.54-10.6,1.76-1.52,1.47,4.72,1.47,4.72Z"/>
          <path class="aj" d="M1498.12,98.44s-8.39,35.13-7.05,48.36c0,0,3.08-14.14,10.5-25.72,0,0-2.71-2.38-2.56-3.26,0,0,2.01-.6,3.96-.19,0,0-.22-15.14-1.43-16.74-1.22-1.6-3.42-2.44-3.42-2.44Z"/>
          <path class="aj" d="M1484.95,99.63c.17-.1-8.31,34.33-9.02,45.3,0,0,.84-19.58,.76-25.22,0,0,3.48-1.84,3.48-2.49s-3.72-2.4-3.72-2.4c0,0,2.35-12.06,3.64-13.38,1.28-1.33,4.86-1.81,4.86-1.81Z"/>
        </g>
        <g>
          <g>
            <path class="bv" d="M1375.85,251.8c.44,.51,.5,1.08,.28,1.68,0,0,0,0,0,0-.41,1.12-1.75,2.37-3.3,3.62-.2,.16-.38,.31-.53,.44-.04,.04-.08,.07-.12,.11-.03,.03-.06,.06-.09,.08-1.45,1.34-.91,1.65-3.51,4.36-2.97,3.09-5.02,3.15-5.6,2.87-.49-.24,.51-1.88,1.62-3.73,.05-.09,.11-.18,.16-.27,.15-.25,.29-.49,.44-.74,1.3-2.22,.97-3.26,.66-6.57-.25-2.69-4.18-15-4.18-15l5.7-.98s1.72,9.81,3.61,11.32c1.01,.8,2.14,.82,3.12,1.41,.07,.04,.14,.08,.2,.13,.55,.37,1.12,.74,1.56,1.25Z"/>
            <path class="cb" d="M1375.85,251.8c.44,.51,.5,1.08,.28,1.68,0,0,0,0,0,0-.5,1.12-1.8,2.37-3.31,3.61-.2,.16-.37,.31-.52,.45-.04,.04-.08,.07-.12,.11-.03,.03-.06,.06-.09,.08-1.45,1.34-.91,1.65-3.51,4.36-2.97,3.09-5.02,3.15-5.6,2.87-.49-.24,.51-1.88,1.62-3.73,.58-.21,3.27-1.3,5.3-3.91,1.79-2.29,2.99-5.22,4.2-6.92,.07,.04,.14,.08,.2,.13,.55,.37,1.12,.74,1.56,1.25Z"/>
            <path class="bv" d="M1329.89,248.24c-.35,1.76-2.86,1.47-5.66,.78-2.8-.68-2.14,.13-6.12-.31-3.99-.44-5.2-1.93-5.32-2.52-.11-.53,1.86-.71,3.97-.96,.27-.03,.53-.06,.8-.1,2.39-.3,4.13-1.84,6.3-3.1,2.05-1.2,5.12-6.08,5.12-6.08l5.47,.43s-2.87,4.36-3.98,6.25c-.65,1.11-.62,2.59-.54,3.73,.04,.62,.08,1.25-.04,1.87Z"/>
            <path class="cb" d="M1324.23,249.02c-2.8-.68-2.14,.13-6.12-.31-3.99-.44-5.2-1.93-5.32-2.52-.11-.53,1.86-.71,3.97-.96l.02,.04s2.39,1.7,5.71,1.78c2.71,.07,5.57-.71,7.44-.68,.04,.62,.08,1.25-.04,1.87-.35,1.76-2.86,1.47-5.66,.78Z"/>
            <path class="bv" d="M1342.06,167.92s-1.3-3.19-2.74-3.32c-1.43-.13-5.99-.85-6.32-.2-.33,.65,0,3,.98,3.84s7.04,2.21,7.04,2.21l1.04-2.54Z"/>
            <path class="d" d="M1350.85,213.27l11.79,31.72s1.81,.18,3.55-.32c1.6-.46,3.43-1.67,3.43-1.67,0,0-2.92-30.45-8.28-36.79-5.36-6.33-10.48,7.07-10.48,7.07Z"/>
            <path class="cb" d="M1397.46,200.44s-33.86-11.45-41.42-9.01c-7.55,2.44-30.23,47.55-30.23,47.55,0,0,.51,.68,1.91,1.2,1.3,.49,4.44,.46,4.44,.46,0,0,20.47-17.54,22.9-22.66,2.44-5.12,3.41-9.99,5.85-9.5,2.44,.49,31.43,11.94,38.01,5.12,6.58-6.82,4.86-15.68,4.86-15.68l-6.32,2.53Z"/>
            <path class="u" d="M1376.77,147.17c-.54-1.12-1.15-3.1-1.44-6.64,.05,.35,.65,4.81,2.37,7.33,7.04,4.62,20.54,20.06,20.28,22.99,0,0,4.75-8.06,4.84-8.11,0,0,8.77-11.15-1.62-17.54-5.28-3.25-5.26-7.41-5.04-11.03,.22-3.62-1.44-19.2-12.02-15.13,0,0-1.7-.75-2.46-.64,0,0,.62,.12,.94,.44-1.23-.07-2.98,.02-4.44,.85-3.88,2.2-7.35,21.99-1.39,27.47Z"/>
            <path class="bv" d="M1378.11,148.1s3.4,1.8,5.98,1.09c2.43-.66,4.02-3.81,3.99-3.82-1.03-.2-1.33-1.62-1.3-7.7l-.47,.09-7.83,1.55s.18,2.46,.18,4.78c0,1.95-.11,3.8-.56,4Z"/>
            <path class="bf" d="M1378.49,139.32s.18,2.46,.18,4.78c4.38-.12,6.69-4.12,7.64-6.33l-7.83,1.55Z"/>
            <path class="u" d="M1387.12,136.91s2.29-3.63,2.85-6.73c.39-2.21-.73-10.42-8.98-9.24,0,0-2.39,.24-4.65,1.76-1.79,1.21-4.37,3.82-1.49,10.98l.75,2.42,11.51,.81Z"/>
            <path class="bv" d="M1377.03,141.51s10.36,.17,10.37-6.28c0-6.45,1.35-10.78-5.27-11.16-6.61-.38-7.9,2.08-8.43,4.23-.53,2.15,.63,13,3.33,13.21Z"/>
            <path class="u" d="M1377.41,123.91s2.84,7.57,7.19,8.69c4.35,1.12,6.24-.05,6.24-.05,0,0-3.34-2.65-4.03-7.28,0,0-7.26-4.96-9.4-1.36Z"/>
            <path class="u" d="M1378.11,124.53s-2.12,1.69-2.63,3.33c-.52,1.64-.75,5.03-1.73,4.91,0,0-2.14-5.15,.26-8.06,2.55-3.09,4.11-.19,4.11-.19Z"/>
            <path class="e" d="M1405.41,200.62c-.56,1.55-2.27,1.95-4.57,1.68-4.38-.51-10.88-3.45-15.57-5.49-7.15-3.1-10.4-.19-12.67-2.16-2.27-1.97,2.6-6.36-1.62-26.71-1.43-6.9,7.64-21.7,7.64-21.7,0,0,.78,4.29,9.47-.87,.31-.18,3.72,4.88,7.02,11.12,3.63,6.88,7.1,15.2,6.08,19.48-1.95,8.17,5.85,20.14,4.22,24.65Z"/>
            <path class="e" d="M1378.62,146.24l-5.35,21.96s-.67,1.19-1.71,2.87c-2.45,3.96-6.99,10.7-9.89,11.38-1.43,.34-4.48-.85-7.85-2.56-6.38-3.22-13.91-8.27-13.91-8.27-.49-2.92,2.06-5.31,2.06-5.31,0,0,15.27,5.74,16.79,5.85,3.31,.24,6.67-15.72,9.76-21.03,2.23-3.84,10.12-4.89,10.12-4.89Z"/>
            <path class="h" d="M1379.33,137.6s-.19,.82-2.23,.69c0,0-1.71-.11-1.66-1.01,0,0,1.66-.64,3.89,.31Z"/>
            <path class="bb" d="M1405.41,200.62c-.56,1.55-2.27,1.95-4.57,1.68-3.03-1.32-16.12-6.39-15.98-9.83,.22-5.09,2.52-5.25,.89-11.53-1.3-5.04,10.79-14.42,12.72-16.46,3.63,6.88,3.73,7.21,2.71,11.49-1.95,8.17,5.85,20.14,4.22,24.65Z"/>
            <path class="bb" d="M1371.55,171.08c-2.45,3.96-6.99,10.7-9.89,11.38-1.43,.34-4.48-.85-7.85-2.56,2.46,.63,4.85,.62,7.17,.39,2.52-.24,3.25-3.33,7.23-7.96,2.58-3,3.21-2.25,3.34-1.26Z"/>
            <path class="bv" d="M1383.68,180.82s-2.19-1.71-4.26-1.3c-2.07,.41-3.09,1.83-3,2.48,.08,.65,1.18,2.48,2.76,2.64,1.58,.16,6.09-.97,6.09-.97l-1.58-2.84Z"/>
            <path class="e" d="M1388.09,145.37s8.44,.52,11.37,4.6c4.11,5.74,11.26,29.17,9.31,34.53l-25.69-.11s-.62-2.91,.24-4.32c.87-1.41,14.94-3.68,15.59-4.33,.65-.65-8.12-12.67-8.12-14.62s-2.7-15.75-2.7-15.75Z"/>
          </g>
          <g>
            <g>
              <polygon class="n" points="1381.48 190.41 1350.38 190.41 1344.77 170.86 1375.82 170.86 1381.48 190.41"/>
              <rect class="bg" x="1350.48" y="189.65" width="40.66" height=".76"/>
            </g>
            <path class="bg" d="M1360.25,180.32c-.2-.69,.2-1.24,.89-1.24s1.4,.56,1.6,1.24c.2,.69-.2,1.24-.89,1.24s-1.4-.56-1.6-1.24Z"/>
          </g>
        </g>
        <g>
          <path class="bv" d="M1283.75,146.04s3.4-2.78,4.62-2.79c1.22-.01,3.54-.63,3.45-.23-.09,.4-2.05,.92-1.71,1.1,.34,.18,3.18-.58,3.97-.12,.79,.46,2.66,2.35,1.16,3.18-1.5,.82-5.98,2.14-7.15,1.98-1.16-.15-3.79-.34-3.79-.34l-.56-2.78Z"/>
          <polygon class="bv" points="1240.33 249.36 1243.18 261.37 1247.45 261.34 1247.61 249.36 1240.33 249.36"/>
          <polygon class="bv" points="1276.25 249.87 1284.37 261.37 1287.53 257.31 1282.65 248.29 1276.25 249.87"/>
          <path class="bg" d="M1259.63,104.67h0s0-.06,0-.09c-.05-.6-.12-1.19-.2-1.78h0c-.24-1.8-.6-3.53-1.02-5.08-.25-.89-.52-1.71-.81-2.46-.04-.11-.09-.22-.13-.33h0c-.69-1.7-1.49-2.91-2.29-3.37-1.48-.84-3.24-.93-4.48-.86,.32-.33,.95-.45,.95-.45-.77-.11-2.48,.64-2.48,.64-10.66-4.11-12.34,11.59-12.11,15.24,.22,3.65-3.58,4.84-9.13,7.71-10.58,5.48-11.51,12.82-11.51,12.82,.08,.05,.17,.11,.26,.17,.53-.89,1.61-2.56,2.52-2.81-.04,.08-1.08,2.3-1.47,3.57,1.34,1.02,3.17,2.56,5.14,4.29h0c2.65,2.31,5.56,4.95,7.89,7.08-.02-.73,.01-1.76,.28-2.31l.44,2.68,.06,.35c1.49,1.37,2.66,2.45,3.25,3.01,.06,.06,.11,.11,.16,.15,.17,.16,.27,.25,.27,.25-.09-.94,1.23-3.15,3.29-5.87,.14-.19,.29-.38,.44-.58,.66-.86,1.39-1.76,2.17-2.69,.28-.33,.56-.67,.86-1.01,0,0,0,0,0,0,.23-.27,.47-.54,.72-.82h0c.58-.66,1.17-1.31,1.77-1.97,1.56-1.7,3.2-3.38,4.8-4.91,2.32-2.22,4.56-4.12,6.37-5.31,.07-.1,.13-.2,.2-.31,.34-.54,.63-1.16,.87-1.8,.08-.19,.15-.38,.21-.58,.71-2.04,1.03-4.12,1.1-4.62-.17,2.05-.45,3.57-.76,4.7-.07,.25-.14,.48-.21,.69h0c-.16,.48-.32,.88-.47,1.2,.31-.29,.59-.61,.86-.97,.17-.23,.33-.48,.48-.75,1.78-3.1,2.16-8.07,1.73-12.84Z"/>
          <path class="bv" d="M1255.21,120.16s-3.42,1.81-6.03,1.1c-2.45-.67-4.05-3.84-4.01-3.85,1.04-.21,1.34-1.63,1.31-7.75l.47,.09,7.88,1.56s-.18,2.48-.18,4.82c0,1.96,.11,3.82,.56,4.03Z"/>
          <path class="j" d="M1246.29,94.13s3.89-4.14,8.77-.21c0,0-2.84-.49-8.77,.21Z"/>
          <path class="bf" d="M1254.83,111.31s-.18,2.48-.18,4.82c-4.41-.12-6.74-4.15-7.7-6.38l7.88,1.56Z"/>
          <path class="bg" d="M1246.13,108.89s-2.31-3.65-2.87-6.77c-.4-2.23,.74-10.49,9.04-9.3,0,0,2.41,.24,4.68,1.77,1.8,1.22,4.41,3.85,1.5,11.06l-.76,2.44-11.6,.81Z"/>
          <path class="ad" d="M1286.24,254.15l-4.18,.13-4.52,.14s-10.45-11.63-16.3-30.27c-.14-.43-.28-.87-.43-1.32-3.21-9.35-9.85-21.09-13.36-31.71-.56-1.69-1.06-3.28-1.51-4.79-.14-.48-.28-.96-.42-1.42-2.58-8.97-3.33-14.86-4.02-21.15l25.3,.2s4.08,42.97,19.44,90.2Z"/>
          <path class="g" d="M1263.26,149.42c-.06,12.04,1.77,17.2,1.77,17.2,0,0-10.83,5.5-23.7,1.45-.15-.05-10.66-2.45-10.66-2.45,.22-.49,2.13-8.6,2.34-9.05,2.72-5.84,4.78-8.4,5.1-10.19,.6-3.35,.61-6.82,.31-10.08-.79-8.65-3.12-15.84-3.12-15.84,3.51-.8,6.79-2.2,10.44-3.57,.84,1.05,3.41,2.14,5.63,2.09,2.56-.06,3.4-1.15,3.26-2.35,2.73,1.52,4.91,2.96,4.91,2.96,2.32,4.03,7.03,7.95,7.37,14.14,.08,1.52-3.66,15.35-3.67,15.69Z"/>
          <path class="bv" d="M1256.3,113.53s-10.43,.17-10.44-6.33c0-6.5-1.36-10.86,5.3-11.24,6.66-.38,7.96,2.09,8.49,4.26,.53,2.17-.64,13.09-3.35,13.3Z"/>
          <path class="bg" d="M1255.92,95.8s-2.86,7.63-7.24,8.75c-4.38,1.13-6.29-.05-6.29-.05,0,0,3.36-2.67,4.06-7.34,0,0,7.31-5,9.47-1.37Z"/>
          <path class="bg" d="M1255.21,96.42s2.13,1.7,2.65,3.36c.52,1.66,.75,5.06,1.75,4.95,0,0,2.15-5.18-.27-8.12-2.57-3.11-4.13-.19-4.13-.19Z"/>
          <path class="bv" d="M1243.04,260.69s.34,2.38-.54,4.92c0,0-.7,3.18,2.44,3.24,3.14,.06,3.91-.24,3.55-2.19-.36-1.95-1.03-5.33-1.03-5.33l-4.41-.65Z"/>
          <path class="cb" d="M1248.9,270.75h-6.87c-.28-1.41,.34-4.43,.44-5.01,0-.04,.01-.08,.02-.1,0-.02,0-.03,0-.03,3.55,3.25,5.77-.08,5.77-.08,0,0,0,0,0,.02,.52,1.28,.63,4.7,.62,5.2Z"/>
          <path class="bv" d="M1295.09,266.99s-5.78-6.42-7.56-9.68l-4.3,2.2,9.61,9.03,2.25-.3v-1.25Z"/>
          <path class="cb" d="M1298.76,270.75h-7.28c-1.07,0-1.93-1.78-3.08-4.08-.47-.94-1.53-1.46-2.62-1.75l.03,5.83h-1.68l-1.55-6.17c-1.02-1.88-.08-3.59,.64-5.07,.84,0,3.09,.57,7.36,5.39,1.4,1.58,2.95,2.14,4.49,2.1,.02,.01,.04,.02,.06,.03,3.55,1.6,3.61,3.73,3.61,3.73Z"/>
          <path class="aj" d="M1282.06,254.28l-4.52,.14s-10.45-11.63-16.3-30.27c-.14-.43-.28-.87-.43-1.32-3.21-9.35-9.85-21.09-13.36-31.71-.56-1.69-1.06-3.28-1.51-4.79-.14-.48-.28-.96-.42-1.42l3.73-2.83s11.18,18.11,14.65,35.15c3.01,14.8,15.05,32.62,18.17,37.05Z"/>
          <path class="ad" d="M1249.64,218.82c.06,8.29-.36,27.34-1.43,35.23h-4.01c-2.21,0-3.32-.03-3.32-.03-2.71-13.72-4.63-25.06-6.04-34.84-1.15-8.03-2.17-14.91-2.96-20.83-.79-5.96-1.34-10.95-1.54-15.17-.03-.66-.05-1.31-.07-1.94-.01-.63-.02-1.24-.01-1.84l21.86-2.13c-.28,14.52-2.52,36.73-2.49,41.55Z"/>
          <path class="aj" d="M1244.2,254.05c-2.21,0-3.32-.03-3.32-.03-2.71-13.72-4.63-25.06-6.04-34.84-1.15-8.03-2.17-14.91-2.96-20.83-.79-5.96-1.34-10.95-1.54-15.17l8.02,4.72s-5.12,1.81-3.17,15.48c1.95,13.67,6.28,48.74,9,50.68Z"/>
          <path class="bf" d="M1245.23,183.05s-1.54,5.56-6.87,4.85c-5.33-.71-12.9-3.91-12.9-3.91,0,0,2.28-7.19,5.11-16.64,3.43-11.44,4.28-27.52,6.28-36.82,.56-2.61,4.33-3.45,4.48-5.01l4.42-8.57s6.59,14.79,6.94,18.52c.36,3.73-7.46,47.58-7.46,47.58Z"/>
          <path class="ao" d="M1241.5,146.44c-.24,6.04-2.35,16.33-10.84,20.86-.03,.02-.07,.03-.1,.05,3.43-11.44,3.38-22.41,5.38-31.72,4.56-.95,5.68,7.49,5.55,10.81Z"/>
          <g>
            <path class="cb" d="M1296.62,142.83h-8.18s-.01,.2-.02,.42c-.03,.74-.08,2.19-.07,2.33,.11,1.73,1.32,2.69,2.49,3.15h0s0,0,.02,0c.28,.11,.55,.19,.81,.24,.2,.04,.38,.07,.55,.09,.11,.01,.22,.02,.32,.02,.6,0,1.17-.13,1.68-.36,1.44-.64,2.45-2.09,2.45-3.76v-1.61c0-.17-.01-.34-.03-.52Z"/>
            <path class="j" d="M1295.95,142.83h-1.11c.02,.17,.03,.34,.03,.52v1.61c0,1.12-.45,2.14-1.18,2.88-.36,.37-.79,.67-1.27,.88-.24,.11-.5,.2-.77,.26-.11,.03-.23,.05-.35,.06,.18,.03,.37,.04,.55,.04,.12,0,.23,0,.35-.02,.47-.04,.92-.16,1.33-.34,.77-.34,1.41-.92,1.85-1.63h0c.17-.29,.31-.59,.41-.92,.12-.38,.18-.79,.18-1.21v-1.61c0-.17,0-.35-.03-.52Z"/>
            <rect class="cb" x="1290.84" y="148.72" width="3.37" height=".5" transform="translate(2585.05 297.94) rotate(180)"/>
          </g>
          <path class="bv" d="M1232.19,159.84s3.81-.82,4.78,.26c.98,1.09,1.53,2.81,.55,3.42-.98,.61-3.81-1.06-4.82-.39-.73,.48-.96,1.7-1.69,1.28-.73-.43-1.5-3.23-1.5-3.23l2.69-1.34Z"/>
          <path class="bf" d="M1245.74,116.95s-10.27,.45-12.74,2.74c-2.47,2.29-17.25,20-17.49,24.64-.24,4.64,12.95,17.83,12.95,17.83,0,0,3.66-.88,5.25-3.19,0,0-8.18-14.59-7.69-15.23,.49-.64,14.35-12,15.49-9.48,.98,2.17,4.24-17.33,4.24-17.33Z"/>
          <path class="bf" d="M1284.81,144.54s-11.73,3.91-13.19,3.58c-1.47-.33-3.56-16.21-4.69-21.66-1.46-7.01-7.01-8.41-7.01-8.41l-5.27-1.41s6.04,14.91,6.21,17.93c.18,3.02,.71,49.36,.71,49.36,0,0-.36,2.13,3.73,1.24,4.08-.89,5.15-1.78,5.15-1.78,0,0-1.77-12.95-2.6-24.46,4.16-.71,17.54-7.49,17.54-7.49,2.08-3.26-.57-6.92-.57-6.92Z"/>
        </g>
        <g>
          <path class="ap" d="M1317.58,194.56l-2.14,12.1h0s-5.9,33.43-5.9,33.43l-5.27,29.88c-.08,.45-.48,.78-.95,.78-.42,0-.74-.36-.68-.76l4.55-33.87,4.86-36.23,.73-5.47,4.8,.14Z"/>
          <path class="ap" d="M1340.92,194.56l-2.14,12.1h0s-5.9,33.43-5.9,33.43l-5.27,29.88c-.08,.45-.48,.78-.95,.78-.42,0-.74-.36-.68-.76l4.55-33.87,4.86-36.23,.73-5.47,4.8,.14Z"/>
          <path class="aq" d="M1315.44,206.66c.28-5.2-3.4-6.77-3.4-6.77l.73-5.47,4.8,.14-2.14,12.1Z"/>
          <g>
            <path class="ap" d="M1518.98,270.75c-.47,0-.87-.33-.96-.78l-4.68-26.55-6.74-38.18-1.88-10.68,4.8-.14,.83,6.2,5.85,43.56,3.47,25.82c.05,.4-.27,.76-.68,.76Z"/>
            <path class="aq" d="M1510.35,200.62c-3.11,1.37-3.75,4.62-3.75,4.62l-1.88-10.68,4.8-.14,.83,6.2Z"/>
          </g>
          <g>
            <path class="ap" d="M1545.88,270.75c-.47,0-.87-.33-.96-.78l-4.68-26.55-6.74-38.18-1.88-10.68,4.8-.14,.83,6.2,5.85,43.56,3.47,25.82c.05,.4-.27,.76-.68,.76Z"/>
            <path class="aq" d="M1537.25,200.62c-3.11,1.37-3.75,4.62-3.75,4.62l-1.88-10.68,4.8-.14,.83,6.2Z"/>
          </g>
          <rect class="bh" x="1290.71" y="190.37" width="258.67" height="8.38" rx="4.15" ry="4.15"/>
        </g>
        <g>
          <path class="cb" d="M1344.6,185.33c-.39-.24-1.14-.15-1.68-.03v-.79c0-.17-.01-.35-.03-.52h-8.18c-.02,.17-.03,.34-.03,.52v1.61c0,2.27,1.86,4.12,4.12,4.12,1.23,0,2.33-.54,3.09-1.4h0s1.95-.48,2.56-1.2c.61-.73,.81-1.9,.16-2.3Zm-.43,1.48c-.21,.53-1.13,.82-1.59,.93,.18-.42,.3-.88,.33-1.36,.28-.39,.73-.61,1.06-.55,.29,.05,.47,.3,.21,.98Z"/>
          <path class="j" d="M1335.34,184.51v1.61c0,2.27,1.86,4.12,4.12,4.12,.19,0,.37-.01,.55-.04-2.01-.27-3.57-2-3.57-4.08v-1.61c0-.17,.01-.35,.03-.52h-1.11c-.02,.17-.03,.34-.03,.52Z"/>
          <rect class="cb" x="1337.1" y="189.88" width="3.37" height=".5"/>
        </g>
        <g>
          <path class="cb" d="M1460.86,185.33c-.39-.24-1.14-.15-1.69-.03v-.79c0-.17-.01-.35-.03-.52h-8.18c-.02,.17-.03,.34-.03,.52v1.61c0,2.27,1.86,4.12,4.12,4.12,1.23,0,2.33-.54,3.09-1.4h0s1.95-.48,2.56-1.2c.61-.73,.81-1.9,.16-2.3Zm-.43,1.48c-.21,.53-1.13,.82-1.59,.93,.18-.42,.3-.88,.33-1.36,.28-.39,.73-.61,1.06-.55,.29,.05,.47,.3,.21,.98Z"/>
          <path class="j" d="M1451.59,184.51v1.61c0,2.27,1.86,4.12,4.12,4.12,.19,0,.37-.01,.55-.04-2.01-.27-3.57-2-3.57-4.08v-1.61c0-.17,.01-.35,.03-.52h-1.11c-.02,.17-.03,.34-.03,.52Z"/>
          <rect class="cb" x="1453.36" y="189.88" width="3.37" height=".5"/>
        </g>
      </g>
      <g>
        <g>
          <g>
            <path class="z" d="M851.33,159.97l-1.44,7.49c5.46,2.75,18.98,2.88,18.98,2.88l.15-2.66s-17.13-6.62-17.69-7.71Z"/>
            <path class="bx" d="M867.6,167.26s5.98-.07,6.58,.33c.6,.4,3.64,4.32,3.15,4.9-.49,.58-2.07,.78-3.64-.08-1.58-.86-5.16-1.8-5.66-2.76-.5-.96-.43-2.39-.43-2.39Z"/>
            <path class="n" d="M847.23,108.68s-.42-5.35-8.12-3.96c-2.04,.37-3.44-3.26-6.77-1.97-7.18,2.79-7.6-.89-9.67,4.27-.87,2.16-6.39,4.68-4.7,8.41,1.69,3.73-1.13,6.24,.85,9.17,1.03,1.51,.61,4.22,5.45,4.32,2.41,.05,6.16,4.51,8.87,5.32,2.7,.81,10.83-.36,10.52-4.07-.24-2.89,3.14-2.65,5.21-5.98,1.81-2.91-1.42-3.64,.31-8.34,1.27-3.45-2.03-4.29-1.94-7.16Z"/>
            <g>
              <path class="bx" d="M889.56,240.39c-.17,1.79,2.33,2.23,5.22,2.37,2.89,.14,2.01,.74,5.97,1.45,3.96,.72,5.54-.37,5.83-.9,.26-.47-1.58-1.22-3.55-2.05-.25-.1-.49-.21-.74-.32-2.21-.97-3.44-2.95-5.17-4.78-1.63-1.74-3.18-7.3-3.18-7.3l-5.38-1.15s1.51,5.01,2.03,7.15c.31,1.26-.15,2.66-.55,3.73-.22,.58-.44,1.18-.49,1.81Z"/>
              <path class="ah" d="M894.77,242.76c2.89,.14,2.01,.74,5.97,1.45,3.96,.72,5.54-.37,5.83-.9,.26-.47-1.58-1.22-3.55-2.05l-.03,.03s-2.78,.95-5.99,.07c-2.62-.71-5.15-2.27-6.95-2.78-.22,.58-.44,1.18-.49,1.81-.17,1.79,2.33,2.23,5.22,2.37Z"/>
            </g>
            <path class="bg" d="M842.46,173.3s29.28,.63,36.01,4.88c6.73,4.25,17.52,53.7,17.52,53.7,0,0-.67,.53-2.15,.69-1.38,.15-4.43-.66-4.43-.66,0,0-15.51-22.13-16.6-27.7-1.09-5.57-.83-10.55-3.31-10.68-2.49-.13-33.49,3.77-38.18-4.49-4.69-8.26-.81-16.44-.81-16.44l11.96,.7Z"/>
            <g>
              <path class="bx" d="M877.26,240.59c-.17,1.79,2.33,2.23,5.22,2.37,2.89,.14,2.02,.74,5.97,1.45,3.96,.72,5.54-.37,5.83-.9,.26-.47-1.58-1.22-3.55-2.05-.25-.1-.49-.21-.74-.32-2.21-.97-3.44-2.95-5.17-4.78-1.63-1.74-3.18-7.3-3.18-7.3l-5.38-1.15s1.51,5.01,2.03,7.15c.31,1.26-.15,2.66-.55,3.73-.22,.58-.44,1.18-.49,1.81Z"/>
              <path class="ah" d="M882.48,242.96c2.89,.14,2.02,.74,5.97,1.45,3.96,.72,5.54-.37,5.83-.9,.26-.47-1.58-1.22-3.55-2.05l-.03,.03s-2.78,.94-5.99,.07c-2.62-.71-5.15-2.27-6.95-2.78-.22,.58-.44,1.18-.49,1.81-.17,1.79,2.33,2.23,5.22,2.37Z"/>
            </g>
            <path class="n" d="M830.39,173.3s31.74,1.5,38.3,6.01c6.56,4.5,15.41,54.34,15.41,54.34,0,0-.69,.51-2.18,.61-1.39,.1-4.4-.84-4.4-.84,0,0-14.63-22.71-15.51-28.33-.87-5.61-.41-10.57-2.89-10.8-2.48-.23-33.61,2.46-37.97-5.98-4.36-8.44,9.24-15.02,9.24-15.02Z"/>
            <path class="bx" d="M820.89,132.74s.03-.03,.04-.05c.25-.28,.55-.54,.89-.78h.01s0,0,0,0c2.59-1.81,7.23-2.2,7.23-2.2h0s0,0,0,0c0,0,.51-.05,1.31-.08,.61-1.58,1.3-3.91,1.51-7.31l.46,.12,7.72,2.07s-.34,2.45-.5,4.77c-.04,.51-.06,1.01-.07,1.48,.22,.08,.43,.16,.61,.24,0,0,0,0,0,0h0s4.42,.52,5.46,1.64c1.04,1.13,3.13,8.6,3.66,9.93l-29.74,.49s-.75-7.77,1.4-10.31Z"/>
            <path class="bq" d="M819.79,185.92c3.58,.34,15.8-7.08,19.54-9.28,1.65-.97,3.96-1.42,6.16-1.79,2.8-.46,5.42-.77,6.26-1.77,1-1.2-1.94-2.52-4.29-3.89-1.19-.69-2.23-1.4-2.56-2.11-.25-.56-.23-1.77-.06-3.33h0c.03-.29,.07-.6,.11-.91,1.27,2.63,4.67,5.83,6.16,6.19,1.7,.41,3.47-1.48,4.77-3.28,.97-1.35,1.68-2.65,1.9-2.9,.53-.58-2.12-1.74-3.21-2.6-1.08-.87-5.35-17.7-5.35-17.7-.53-1.33-2.62-8.8-3.66-9.93,0,0-4.07,4.98-9.36,4.69-5.25-.28-14.23-5.34-14.37-5.42h-.01s-.93,.83-.93,.83c-2.15,2.54-1.4,10.31-1.4,10.31,0,0,4.11,18.12,4.11,19.95,0,3.35-2.77,11.07-4.09,16.62-.84,3.52-1.1,6.17,.29,6.3Z"/>
            <path class="z" d="M840.06,124.51s-.34,2.45-.5,4.77c-4.37-.42-6.42-4.57-7.22-6.84l7.72,2.07Z"/>
            <path class="bx" d="M841.38,126.8s-10.37-.52-9.95-6.97c.42-6.46-.63-10.87,6.01-10.81,6.64,.06,7.77,2.61,8.15,4.8,.38,2.19-1.5,12.96-4.21,12.99Z"/>
            <path class="k" d="M847.46,169.19c2.68,4.57-7.27,5.94-8.91,6.91-3.74,2.2-15.17,10.16-18.76,9.82-1.39-.13-1.13-2.78-.29-6.3,1.32-5.55,4.09-13.27,4.09-16.62,0-1.83,.61-6.16,1.42-11.11l4.31-4.14s4.62,11.94,9.02,13.89c2.31,1.02,4.72,1.7,6.49,2.11-.17,1.55-.19,2.77,.06,3.33,.32,.71,1.37,1.41,2.56,2.11Z"/>
            <path class="bx" d="M827.44,136.31s-3.4-5.27-6.96-1.02c-3.56,4.25,2.53,34.59,7.81,36.15,5.86,1.73,22.81-.28,22.81-.28l-.33-2.65s-18.04-3.46-18.79-4.42c-.75-.96-2.67-27.29-4.55-27.78Z"/>
            <path class="n" d="M841.81,111.31s-2.48-.58-3.29,.63c-.81,1.21-.23,1.88-2.04,2.39-1.81,.51-2.42,.47-2.24,1.74,.18,1.27-1.82,2.21-1.9,3.22-.09,1.01-.92,1.52-1.71,1.59-.8,.07-.43-13.06,2.64-13.64,3.08-.58,6.04,.11,6.95,.83,.9,.72,1.6,3.24,1.6,3.24Z"/>
            <path class="n" d="M841.81,111.31s2.41-.17,2.85,1.21c.43,1.37-.14,1.7,.47,2.53,.62,.83,.26,2.31,.26,2.31,0,0,4.77-8.78-.26-9.36-5.03-.58-4.9,.45-3.32,3.32Z"/>
            <path class="bq" d="M840.35,166.33s-.97,8.91-5.89,9.93c-4.92,1.02-11.92-3.83-14.17-19.55-2.25-15.72-2.35-23.7,2.86-23.3,5.21,.4,7.25,5.09,7.11,10.68-.14,5.81,.71,14.4,3.1,15.95,2.39,1.55,6.99,6.29,6.99,6.29Z"/>
            <path class="k" d="M844.84,163.76h0c.03-.29,.07-.6,.11-.91,1.27,2.63,4.67,5.83,6.16,6.19,1.7,.41,3.47-1.48,4.77-3.28-2.43-1.24-9.12-5.12-9.76-10.67-.77-6.79-1.28,8.66-1.28,8.66h0Z"/>
            <path class="bx" d="M849.3,168.36s5.87-1.14,6.54-.85c.66,.28,4.36,3.6,3.98,4.26-.38,.66-1.89,1.14-3.6,.57-1.7-.57-5.4-.85-6.06-1.7-.66-.85-.85-2.27-.85-2.27Z"/>
          </g>
          <g>
            <polygon class="ax" points="953.57 172.37 910.46 172.37 899.08 145.56 942.19 145.56 953.57 172.37"/>
            <polygon class="bo" points="954.32 172.37 911.21 172.37 899.83 145.56 942.94 145.56 954.32 172.37"/>
            <polygon class="bw" points="952.73 171.34 912.68 171.34 902.1 146.42 942.16 146.42 952.73 171.34"/>
            <polygon class="ax" points="968.14 173.23 910.81 173.23 910.46 172.37 968.14 172.37 968.14 173.23"/>
          </g>
          <g>
            <polygon class="ax" points="851.12 172.55 849.75 172.55 858.92 150.94 860.3 150.94 851.12 172.55"/>
            <polygon class="bo" points="850.52 172.55 885.87 172.55 895.04 150.94 859.69 150.94 850.52 172.55"/>
            <polygon class="ax" points="839.38 173.25 885.59 173.25 885.87 172.55 839.38 172.55 839.38 173.25"/>
          </g>
          <rect class="ac" x="790.48" y="173.25" width="248.63" height="98.61" rx="4.04" ry="4.04"/>
          <rect class="e" x="863.12" y="183.17" width="163.69" height="88.69" rx="3.64" ry="3.64"/>
          <g>
            <g>
              <path class="bn" d="M991.46,119.11c.15-.46,.25-.96,.26-1.51,.2-6.47,1.67-10.77-4.96-11.35-6.62-.58-7.99,1.85-8.58,4-.59,2.14,.25,13.06,2.95,13.35,0,0,.87,.04,2.1-.06,.06,.71,.16,1.94,.27,3.3,.21,2.59,.47,5.63,.54,6.33l7.33-.36,3.87-4.82s-2.7-3.27-3.79-8.87Z"/>
              <path class="bg" d="M1005.71,202.57c-1.44,2.44-3.1,4.73-4.82,6.9-5.3,6.7-11.08,12.22-12.08,17.43-.2,1.04-.52,2.16-.93,3.34-.42,1.2-.94,2.45-1.54,3.75-2.25,4.89-5.62,10.37-8.98,15.35-5.81,8.61-11.27,15.79-11.27,15.79l-10.02-.43c.4-1,4.77-12.89,10.61-27.41,2.37-5.9,4.9-12.17,7.33-18.22,.32-.81,.65-1.61,.97-2.41,.74-1.85,1.48-3.67,2.19-5.45,5.49-13.64,9.86-24.5,9.86-24.5,0,0,21.93-8.31,24.21-2.93,1.88,4.44,.35,8.79-5.54,18.78Z"/>
              <path class="bg" d="M965.78,263.6s-.51,8.27-2.11,8.38c-.21,.02-8.11,.02-8.11,.02l-10.08-.06s.07-2.43,3.01-2.94c2.95-.51,7.88-2.58,9.67-6.48,1.88-4.1,7.63,1.08,7.63,1.08Z"/>
              <path class="bg" d="M988.97,239.69s6.97,4.48,6.29,5.93c-.09,.19-3.94,7.09-3.94,7.09l-4.97,8.78s-2.09-1.24-1.1-4.07c.99-2.82,1.58-8.14-.95-11.6-2.66-3.64,4.66-6.13,4.66-6.13Z"/>
              <path class="ah" d="M982.4,126.19c.16-.06,9.9-2.39,10.93-1.99,1.02,.4,1.54,2.45,1.54,2.45l-15.88,2.73s1.37-2.45,3.41-3.19Z"/>
              <path class="bg" d="M979.18,109.68s2.57,7.16,4,6.45c1.43-.72,2.75-1.31,3.1,.95,.36,2.27-1.07,5.37,3.7,4.54,4.77-.84,8.33-14.65,6.45-16.59-5.43-5.61-24.71-1.97-17.25,4.66Z"/>
              <path class="n" d="M979.16,183.02s-27.15,16.9-30.22,28.43c-3.07,11.53,36.62,36.11,36.62,36.11,0,0,4.35-3.84,5.12-6.66,0,0-17.94-21.5-21.84-26.32-2.39-2.96,35.35-10.25,39.96-17.42,4.61-7.17,2.96-13.2,2.96-13.2l-32.6-.94Z"/>
              <path class="bn" d="M943.8,169.78s-3.3-3.1-4.87-2.78c-1.57,.33-4.84,2.43-5.35,3.04-.52,.6-.99,1.58,.33,1.82,1.32,.23,1.38,.27,1.38,.27,0,0,2.68-.89,3.19-.73,.51,.16,2.26,1.9,3.69,1.11,1.43-.79,1.64-2.72,1.64-2.72Z"/>
              <path class="ah" d="M1011.77,183.97c-2.62,3.1-24.92,2.29-31.46-.32-.49-.2-.88-.4-1.15-.62-3.84-3.07,4.83-5.77-4.87-29.2,0-.01-.01-.02-.01-.03-6.09-17.34,1.93-22.38,4.74-24.93,0,0,13.62-4.14,21.05-1.84,9.65,2.99,14.51,53.62,11.7,56.95Z"/>
              <path class="ag" d="M988.32,172.47c-.44,3.19-3.01,11.06-8.01,11.17-.49-.2-.88-.4-1.15-.62-3.84-3.07,4.83-5.77-4.87-29.2,0-.01-.01-.02-.01-.03,1.62-1.11,4.25-2.38,5.95-.45,2.62,2.96,8.54,15.82,8.08,19.12Z"/>
              <path class="ah" d="M978.98,129.38s-4.05,2.17-6.93,9.22c-2.98,7.29-6.93,23.64-8.02,24.35-1.09,.71-17.44,3.29-22.31,5.18,0,0-1.91,3.43-.1,4.84,1.81,1.42,23.71,.64,25.03,.29,11.06-2.86,16.86-24.68,18.18-28.03,1.32-3.35-5.85-15.86-5.85-15.86Z"/>
            </g>
            <g>
              <path class="bg" d="M1006.74,263.82v-11.55h11.79c.46,0,.84-.38,.84-.84v-3.14c0-.46-.38-.84-.84-.84h-11.79v-37.22c0-1.22-1-2.22-2.22-2.22h-2.38c-1.22,0-2.22,1-2.22,2.22v37.22h-11.79c-.46,0-.84,.38-.84,.84v3.14c0,.46,.38,.84,.84,.84h11.79v11.55c-8.71,.66-16.16,4.13-18.11,8.18h42.58c-1.96-4.05-8.94-7.53-17.65-8.18Z"/>
              <rect class="x" x="973.11" y="204.8" width="60.45" height="15.37" rx="2.05" ry="2.05"/>
            </g>
          </g>
          <g>
            <path class="k" d="M812.39,241.07s-5.31,3.95-6.34,3.71c-1.03-.24,3.88-4.26,3.88-4.26-1.85-.89-7.59-.33-7.59-.33,0,0-1.31,4.88-2.26,4.39-.94-.49,1.37-4.09,1.37-4.09-2.06-.12-4.58,1.4-4.58,1.4-3.46,2.73,.23,7.03,.23,7.03,0,0-.71,2.12-2.89,4.06,0,0-3.12,2.31-3.33,6.43l.57,.05s.9-3.84,2.53-5.65c.06-.07,.16-.16,.27-.27,.27-.25,.45-.43,.58-.57,.81-.78,1.93-1.77,2.47-1.87,0,0-.03-.1-.02-.27,0,.09,.01,.18,.02,.27,.19,2.17,4.4,4.07,6.99,4.46,2.59,.39,1.79-.68,.9-2.26-.89-1.58-3.72-2.29-4.37-3.01-.64-.73,.69-.73,2.25-.02,1.56,.71,1.78,2.62,4.28,3.82,2.51,1.2,6.28-2.96,6.28-2.96-2-.1-4.85-2.27-4.75-2.93,.1-.66,4.84,1.14,5.65,1.23,.81,.09,2.65-.92,2.94-4.18,.29-3.26-5.06-4.17-5.06-4.17Z"/>
            <g>
              <path class="bq" d="M784.21,243.52s5.86-3.28,3.13-7.74c0,0-2.19-2.73-4.53-3.44,0,0,1.25,6.64,0,6.8-1.25,.16-.86-7.5-.86-7.5,0,0-6.17-2.97-8.6-2.73,0,0,3.83,6.49,2.58,6.33-1.25-.16-5.55-6.72-5.55-6.72,0,0-6.33-1.17-7.34,2.58-1.02,3.75,.63,5.63,1.56,5.86,.94,.23,6.95,.16,6.8,.94-.16,.78-4.22,2.03-6.49,1.33,0,0,2.5,6.17,5.78,5.86,3.28-.31,4.3-2.34,6.33-2.5,2.03-.16,3.52,.39,2.5,.94-1.02,.55-4.45,.18-6.09,1.57-1.64,1.4-2.97,2.25,.08,2.88,3.05,.63,8.52,.23,9.61-2.11l1.09-2.34Z"/>
              <path class="k" d="M785.77,249.23c-1.64-3.05-1.56-5.7-1.56-5.7-1.88-5.94-18.28-11.25-18.28-11.25,20.86,8.44,17.19,13.6,17.19,13.6,.56,.33,1.41,1.89,1.99,3.09,.08,.2,.22,.49,.41,.87h0c.08,.17,.14,.32,.19,.41,1.07,2.69,.51,7.33,.51,7.33l.65,.17c1.44-4.68-1.09-8.52-1.09-8.52Z"/>
            </g>
            <g>
              <path class="bq" d="M793.53,239s-7.72-4.33-4.12-10.2c0,0,2.88-3.6,5.97-4.53,0,0-1.65,8.75,0,8.96,1.65,.21,1.13-9.89,1.13-9.89,0,0,8.14-3.91,11.33-3.6,0,0-5.05,8.55-3.4,8.34,1.65-.21,7.31-8.86,7.31-8.86,0,0,10.19-3.02,11.53,1.92,1.34,4.94-2.67,8.89-3.9,9.2-1.24,.31-9.17,.21-8.96,1.24,.21,1.03,5.55,1.74,8.54,.82,0,0-3.29,9.07-7.61,8.66-4.33-.41-5.66-3.09-8.34-3.3-2.68-.21-4.63,.51-3.3,1.24,1.34,.72,5.87,.24,8.03,2.08,2.16,1.84,3.91,2.97-.1,3.8-4.02,.82-11.23,.31-12.67-2.78l-1.44-3.09Z"/>
              <path class="k" d="M817.63,224.17s-21.63,7-24.1,14.83c0,0,.1,3.5-2.06,7.52,0,0-3.71,5.32-1.81,11.49l1.23-.49s-.75-6.12,.67-9.66c.06-.13,.14-.32,.25-.55h0c.26-.51,.43-.88,.54-1.15,.77-1.58,1.88-3.64,2.62-4.08,0,0-4.84-6.8,22.66-17.92Z"/>
            </g>
            <path class="bo" d="M793.27,271.12c8.36,0,15.13-6.77,15.13-15.13h-30.26c0,8.36,6.77,15.13,15.13,15.13Z"/>
            <path class="i" d="M797,271c-.62,.08-1.24,.12-1.88,.12-8.36,0-15.13-6.78-15.13-15.13h3.76c0,7.72,5.78,14.09,13.25,15.02Z"/>
            <path class="bo" d="M806.75,270.08h-26.95c-1.03,0-1.87,.84-1.87,1.87h30.68c0-1.03-.84-1.87-1.87-1.87Z"/>
            <path class="ax" d="M808.52,255.99h-30.64c-.13,0-.23,.1-.23,.23s.1,.23,.23,.23h30.64c.13,0,.23-.1,.23-.23s-.1-.23-.23-.23Z"/>
          </g>
        </g>
        <g>
          <path class="ai" d="M716.05,182.9c.78,.35,1.75,.79,2.62,1.19,.38-.72,.96-1.53,.96-1.53,0,0,11.32-19.1,12.27-23.57,.31-1.46,1.06-4.37,1.94-7.63,1.82-6.75,4.16-15.02,4.16-15.02l.77-3.34,2.63-11.41s-5.04,.52-7.99,1.75c-.98,.41-1.72,.89-1.98,1.47-2.17,4.76-4.33,16.79-5.85,25.37-.85,4.78-1.49,8.49-1.83,9.28-.94,2.19-3.82,14.27-6.27,20.22,0,0-.66,2.09-1.42,3.22Z"/>
          <path class="ai" d="M718.68,184.17s.13,1.17-.27,1.88c-.4,.71-1.93,1.74-2.19,1.22-.35-.69,2.45-3.11,2.45-3.11Z"/>
          <path class="bg" d="M727.45,265.35s3.91,3.04,5.49,3.62c1.59,.58,3.75,1.13,3.75,2.2h-7.55s-2.05-.95-2.91-.54c-1.39,.66-2.55,.56-3.51,.56-.96,0-1.02-3.22-.21-4.34,.81-1.12,1.4-2.85,1.4-2.85l3.54,1.34Z"/>
          <path class="ai" d="M758.24,125.99c.34-1.06,.6-1.83,.74-2.22,.06-.18,.09-.27,.09-.27,0,0,.11,.1,.28,.32,1.07,1.34,4.75,7.11,1.98,20.46-.41,1.96-.95,4.09-1.66,6.4,0,0,10.18-1.8,13.05-3.71,.12-.3,1.62-4.73,2.75-5.33,1.14-.6,3.23-1.26,3.71-1.02,.48,.24,1.38,3.59,0,5.33-1.38,1.74-4.91,3.41-4.91,3.41,0,0-11.37,9.1-19.27,8.86-6.6-.2,.67-24.31,3.24-32.23Z"/>
          <path class="aj" d="M722.35,117.41c4.44-2.73-2.01-8.79,0-17.59,2.01-8.79,9.28-7.13,14.63-9.95,3.9-2.05,6.67,.02,7.88,1.31,4.83-.36,10.47,6.42,10.47,6.42l-9.35,12.39,.35,15.05s-8.05,11.99-15.83,11.66c-7.78-.33-16.05-14.43-8.16-19.29Z"/>
          <path class="bg" d="M747.81,250.56c3.6,10.16,5.88,13.64,5.88,13.64l4.83,1.16s-1.45-5.43-2.38-16.26c-.65-7.57-.56-16.59,1.61-25.4,7.48-30.29,3.8-51.47,3.8-51.47l-19.09,4.09-.89,.19c.76,8.87,1.67,20.93,2.37,30.36,.63,8.48,1.07,14.84,1.07,14.84-2.95,8.34-.53,19.5,2.79,28.85Z"/>
          <path class="n" d="M726.01,241.67c-2.56,11.95-2.1,22.33-2.1,22.33,0,0,.8,1.08,1.52,1.23,.77,.17,2.02,.11,2.02,.11,0,0,2.08-9.74,6.92-18.53,4.98-9.05,9.32-16.97,10.95-20.03,6.47-12.14,6.74-56.77,6.74-56.77l-19.66-.97c-1.98,3.32-2.84,8.77-3.04,14.97-.52,15.64,3.16,36.04,3.71,38.99,0,0,0,0,0,0,.04,.23-.02,.45-.13,.66-3.91,7.74-5.27,10.28-6.92,18Z"/>
          <path class="ai" d="M760.63,174.46c-4.94-.06-18.39-.31-21.62-1.39-3.98-1.33-4.9-5.23-4.9-5.64,0-.09,.33-1.92,.84-4.75,1.03-2.17,1.55-3.48,1.58-4.86,.02-.67-.08-1.37-.29-2.18-.43-1.66-1.31-3.85-2.63-7.48-.46-1.27-.78-2.59-.98-3.91-1.32-8.86,2.03-19.59,6.07-22.08,.47-.29,1.6-.27,2.16-.39,1.04-.28,2.81-4.04,2.79-10.11l.47,.09,7.89,1.56s-.18,2.48-.18,4.82c0,1.95,.11,3.8,.55,4.03,.57,.05,.9,.08,.9,.08,0,0,0,0,.02,.03,1.5,.1,5.49,.45,6.02,1.53l-1.46,4.43-.42,1.29c1.12,2.4,2.16,5.18,2.67,7.98,.14,.79,.25,1.59,.3,2.38,.04,.67,.05,1.32,.02,1.94-.32,7.23-4.87,11.6,.03,27.24,.7,2.24,.7,4.01,.16,5.38Z"/>
          <path class="ab" d="M760.63,174.46c-2.46,3.34-16.98,3.34-20.21,2.26-3.98-1.33-6.3-8.88-6.3-9.29,0-.09,.33-1.92,.84-4.75,.35-1.95,.8-4.38,1.29-7.04,2.15-11.69,5.16-27.86,5.16-27.86,0,0,6.53,5.66,10.89,4.48,4.36-1.18,5.54-4.15,5.54-4.15,0,0,.01,.05,.04,.14,.29,.93,1.87,6.08,2.2,8.73,.01,.12,.03,.3,.05,.54,.07,.84,.18,2.36,.32,4.32-.32,7.23-4.87,11.6,.03,27.24,.7,2.24,.7,4.01,.16,5.38Z"/>
          <path class="cc" d="M752.03,113.32s-.18,2.48-.18,4.82c-4.42-.12-6.75-4.15-7.71-6.39l7.89,1.56Z"/>
          <path class="aj" d="M743.32,110.9s-2.31-3.66-2.87-6.78c-.4-2.23,.74-10.51,9.06-9.32,0,0,2.42,.24,4.69,1.77,1.81,1.22,4.41,3.85,1.5,11.07l-.76,2.44-11.61,.82Z"/>
          <path class="ai" d="M753.5,115.54s-10.45,.17-10.46-6.34c0-6.51-1.36-10.87,5.31-11.26,6.67-.39,7.97,2.1,8.5,4.27,.53,2.17-.64,13.11-3.36,13.32Z"/>
          <path class="aj" d="M745.86,106.55c-4.39,1.13-6.3-.05-6.3-.05,0,0,1.14-3.93,1.83-8.6,0,0,6.72-2.35,11.62-.25,.68-.59,1.9-1.02,3.52,.94,2.42,2.94,.27,8.13,.27,8.13-.99,.12-1.23-3.3-1.75-4.95-.38-1.22-1.64-2.46-2.28-3.04-.2,.75-2.31,8.06-7.56,10.49,0,0,2.42-2.15,4.2-5.12-1.02,1.16-2.22,2.11-3.56,2.45Z"/>
          <path class="bm" d="M747.57,198.04c-.88,7.67-1.32,26.58,1.16,33.71-7.89-.81-22.15-5.9-26.37-10.24,2.25-8.5,4.49-18.61,5.04-26.83,.13-1.96,.34-4.37,.6-7.1,1.06-11.1,3.03-27.52,4.73-41.09,1.67-13.34,3.07-23.92,3.07-23.92l3.83-.69s5.49,4.49,6.38,19.75c.89,15.27,2.88,44.99,1.57,56.41Z"/>
          <path class="bm" d="M753.3,122.26s4.25,.08,5.76,1.24c1.47,1.13,5.43,8.63,4.85,19.85,.43,1.85,.84,3.75,1.2,5.65,1.06,.26,2.58-.13,2.58-.13,0,0,.81,7.66-.84,13.07,.05,.82,.09,1.62,.12,2.41,.5,16.59-5.62,39.93-5.62,39.93,0,0-2.08-18.71-2.97-39.34-.61-14.13,1.49-22.9-.93-30.3-1.14-3.47-4.15-12.38-4.15-12.38Z"/>
          <path class="bg" d="M758.25,264.49s4.33,3.9,5.92,4.48c1.59,.58,3.75,1.13,3.75,2.2h-7.55s-2.05-.95-2.91-.54c-1.39,.66-2.55,.56-3.51,.56-.96,0-1.02-3.22-.21-4.34,.81-1.12-.04-2.65-.04-2.65l4.56,.29Z"/>
          <g>
            <rect class="bg" x="769.89" y="138.22" width="11.17" height="5.28" rx=".31" ry=".31" transform="translate(396.83 832.12) rotate(-71.58)"/>
            <path class="n" d="M771.03,138.41h10.07c.3,0,.55,.25,.55,.55v4.18c0,.3-.25,.55-.55,.55h-10.07c-.3,0-.55-.25-.55-.55v-4.18c0-.3,.25-.55,.55-.55Z" transform="translate(397.05 832.8) rotate(-71.58)"/>
          </g>
          <path class="ai" d="M779.44,141.07s-.9-1.86-2.54-1.11c-1.65,.75-.93,3.56,.03,4.55,.96,.99,1.23,1.44,1.23,1.44l1.29-4.88Z"/>
          <path class="y" d="M728,187.57c1.06-11.1,3.03-27.52,4.73-41.09,1.4-1.1,2.86-1.52,2.86-1.52,0,0,9.34,27.05-7.59,42.61Z"/>
          <path class="bm" d="M735.79,122.57s-3.78,.82-5.66,3.55c-2.47,3.59-6.47,30.49-8.59,35.09-2.12,4.6-3.11,6.59-3.11,6.59,0,0-1.12,7.15,5.97,11.35,0,0,8.59-15.58,9.71-17.82,1.12-2.24,4.72-33.98,1.67-38.76Z"/>
          <path class="ai" d="M716.05,182.9s-3.21,2.24-3.47,3.02c-.25,.78,.93,2.87,1.94,2.83,1.01-.04,.74-1.65,1.32-2.17s3.19-1.07,2.84-2.49c-.35-1.42-2.62-1.19-2.62-1.19Z"/>
        </g>
      </g>
      <g>
        <g>
          <path class="as" d="M314.45,270.94h.07c.43,0,.77-.35,.76-.78l-1.15-49.97-3.4-.4,2.9,50.37c.02,.43,.38,.77,.82,.77Z"/>
          <path class="at" d="M334.24,270.94h.07c.43,0,.77-.35,.76-.78l-1.15-49.97-3.4-.4,2.9,50.37c.02,.43,.38,.77,.82,.77Z"/>
          <path class="as" d="M279.63,270.94h-.07c-.43,0-.77-.35-.76-.78l1.15-49.97,3.4-.4-2.9,50.37c-.02,.43-.38,.77-.82,.77Z"/>
          <path class="as" d="M336.49,217.1v-34.24c0-6.02-4.88-10.91-10.91-10.91h-24.67c-6.02,0-10.91,4.88-10.91,10.91v35.55l46.49-1.31Z"/>
          <path class="at" d="M288.86,217.1h47.63v5.41h-50.91v-2.13c0-1.81,1.47-3.28,3.28-3.28Z" transform="translate(622.07 439.6) rotate(180)"/>
          <rect class="s" x="277.45" y="217.1" width="40.88" height="5.41" rx="2.42" ry="2.42" transform="translate(595.78 439.6) rotate(180)"/>
        </g>
        <g>
          <rect class="at" x="220.69" y="36.88" width="142.21" height="122.76"/>
          <g>
            <rect class="w" x="223.4" y="38.93" width="136.74" height="118.27"/>
            <g>
              <polygon class="h" points="271.19 90.39 241.23 90.39 241.23 52.97 246.31 48.39 271.19 48.39 271.19 90.39"/>
              <polygon class="as" points="241.23 52.97 246.15 52.97 246.31 48.39 241.23 52.97"/>
              <rect class="as" x="251.41" y="52.03" width="9.59" height=".46"/>
              <rect class="as" x="249.16" y="53.4" width="14.11" height=".46"/>
              <rect class="as" x="244.78" y="62.21" width="23.43" height=".59"/>
              <rect class="as" x="244.78" y="63.99" width="23.43" height=".59"/>
              <rect class="as" x="244.78" y="65.77" width="23.43" height=".59"/>
              <rect class="as" x="244.78" y="67.56" width="23.43" height=".59"/>
              <rect class="as" x="244.78" y="86.65" width="23.43" height=".59"/>
            </g>
            <g>
              <polygon class="h" points="305.79 142.3 275.83 142.3 275.83 104.88 280.91 100.3 305.79 100.3 305.79 142.3"/>
              <polygon class="as" points="275.83 104.88 280.75 104.88 280.91 100.3 275.83 104.88"/>
              <rect class="as" x="286.01" y="103.94" width="9.59" height=".46"/>
              <rect class="as" x="283.76" y="105.31" width="14.11" height=".46"/>
              <rect class="as" x="279.38" y="114.12" width="23.43" height=".59"/>
              <rect class="as" x="279.38" y="115.9" width="23.43" height=".59"/>
              <rect class="as" x="279.38" y="117.68" width="23.43" height=".59"/>
              <rect class="as" x="279.38" y="119.47" width="23.43" height=".59"/>
              <rect class="as" x="279.38" y="124.96" width="23.43" height=".59"/>
              <rect class="as" x="279.38" y="126.74" width="23.43" height=".59"/>
              <rect class="as" x="279.38" y="128.81" width="23.43" height=".59"/>
            </g>
            <g>
              <rect class="as" x="306.16" y="48.39" width="16.55" height="14.59"/>
              <path class="bk" d="M313.7,50.13c0-.4,.32-.72,.72-.72s.72,.32,.72,.72-.32,.72-.72,.72-.72-.32-.72-.72Z"/>
            </g>
            <g>
              <rect class="h" x="306.16" y="68.12" width="16.55" height="14.59" transform="translate(-4.49 22.08) rotate(-3.99)"/>
              <path class="as" d="M313.38,70.82c-.03-.4,.27-.75,.67-.77,.4-.03,.75,.27,.77,.67s-.27,.75-.67,.77-.75-.27-.77-.67Z"/>
            </g>
            <g>
              <rect class="h" x="251.17" y="121.86" width="16.55" height="14.59" transform="translate(-8.36 18.38) rotate(-3.99)"/>
              <path class="as" d="M258.4,124.56c-.03-.4,.27-.75,.67-.77,.4-.03,.75,.27,.77,.67,.03,.4-.27,.75-.67,.77-.4,.03-.75-.27-.77-.67Z"/>
            </g>
            <g>
              <rect class="h" x="229.95" y="131.85" width="16.55" height="14.59" transform="translate(-1.41 2.45) rotate(-.59)"/>
              <path class="as" d="M237.45,134.5c0-.4,.32-.73,.72-.73,.4,0,.73,.32,.73,.72,0,.4-.32,.73-.72,.73-.4,0-.73-.32-.73-.72Z"/>
            </g>
            <g>
              <rect class="ae" x="329.52" y="77.71" width="16.55" height="14.59" transform="translate(20.22 -58.1) rotate(10.13)"/>
              <path class="bu" d="M338.11,79.66c.06-.34,.39-.57,.73-.51s.57,.39,.51,.73-.39,.57-.73,.51c-.34-.06-.57-.39-.51-.73Z"/>
            </g>
            <g>
              <rect class="ae" x="280.68" y="68.12" width="16.55" height="14.59" transform="translate(-6.44 31.53) rotate(-6.18)"/>
              <path class="bu" d="M287.76,70.19c-.04-.35,.21-.66,.56-.69,.35-.04,.66,.21,.69,.56,.04,.35-.21,.66-.56,.69-.35,.04-.66-.21-.69-.56Z"/>
            </g>
            <g>
              <rect class="ak" x="238.61" y="103.32" width="16.55" height="14.59" transform="translate(-17.64 53.92) rotate(-12.04)"/>
              <path class="bk" d="M245.43,105.93c-.29-.19-.38-.58-.19-.87,.19-.29,.58-.38,.87-.19,.29,.19,.38,.58,.19,.87-.19,.29-.58,.38-.87,.19Z"/>
            </g>
            <g>
              <g>
                <polygon class="h" points="296.83 62.98 281.08 62.98 281.08 52.4 285.44 48.39 296.83 48.39 296.83 62.98"/>
                <polygon class="as" points="281 52.4 285.3 52.4 285.44 48.39 281 52.4"/>
              </g>
              <path class="as" d="M289.02,49.74c0-.29,.23-.52,.52-.52s.52,.23,.52,.52-.23,.52-.52,.52-.52-.23-.52-.52Z"/>
            </g>
            <g>
              <g>
                <polygon class="h" points="342.84 149.59 327.1 149.59 327.1 139.01 331.46 135 342.84 135 342.84 149.59"/>
                <polygon class="as" points="327.01 139.01 331.31 139.01 331.46 135 327.01 139.01"/>
              </g>
              <path class="as" d="M335.03,136.35c0-.29,.23-.52,.52-.52s.52,.23,.52,.52-.23,.52-.52,.52-.52-.23-.52-.52Z"/>
            </g>
            <g>
              <g>
                <polygon class="h" points="350.03 128.59 334.28 128.59 334.28 118.01 338.64 114.01 350.03 114.01 350.03 128.59"/>
                <polygon class="as" points="334.2 118.01 338.5 118.01 338.64 114.01 334.2 118.01"/>
              </g>
              <path class="as" d="M342.21,115.36c0-.29,.23-.52,.52-.52s.52,.23,.52,.52-.23,.52-.52,.52-.52-.23-.52-.52Z"/>
            </g>
            <g>
              <g>
                <polygon class="ak" points="329.25 128.59 313.5 128.59 313.5 118.01 317.86 114.01 329.25 114.01 329.25 128.59"/>
                <polygon class="ar" points="313.41 118.01 317.72 118.01 317.86 114.01 313.41 118.01"/>
              </g>
              <path class="bk" d="M321.43,115.36c0-.29,.23-.52,.52-.52s.52,.23,.52,.52-.23,.52-.52,.52-.52-.23-.52-.52Z"/>
            </g>
            <g>
              <g>
                <polygon class="ak" points="354.47 59.33 338.72 59.33 338.72 48.74 343.08 44.74 354.47 44.74 354.47 59.33"/>
                <polygon class="ar" points="338.64 48.74 342.94 48.74 343.08 44.74 338.64 48.74"/>
              </g>
              <path class="bk" d="M346.66,46.09c0-.29,.23-.52,.52-.52s.52,.23,.52,.52-.23,.52-.52,.52-.52-.23-.52-.52Z"/>
            </g>
          </g>
        </g>
        <g>
          <rect class="al" x="166.29" width="34.96" height="33.91" rx="2.5" ry="2.5"/>
          <rect class="w" x="167.8" y="1.47" width="31.93" height="30.97" rx="2.28" ry="2.28"/>
          <g>
            <g>
              <path class="as" d="M183.04,4.56c0-.4,.32-.72,.72-.72s.72,.32,.72,.72-.32,.72-.72,.72-.72-.32-.72-.72Z"/>
              <path class="as" d="M188.88,5.59c.19-.35,.64-.48,.98-.28,.35,.19,.48,.64,.28,.98-.19,.35-.64,.48-.98,.28-.35-.19-.48-.64-.28-.98Z"/>
              <path class="as" d="M193.89,9.56c.34-.22,.78-.12,1,.22,.22,.34,.12,.78-.22,1-.34,.22-.78,.12-1-.22-.22-.34-.12-.78,.22-1Z"/>
              <path class="as" d="M196.37,15.72c.4,0,.72,.32,.72,.72s-.32,.72-.72,.72-.72-.32-.72-.72,.32-.72,.72-.72Z"/>
              <path class="as" d="M195.1,22.86c.28,.28,.28,.74,0,1.02-.28,.28-.74,.28-1.02,0-.28-.28-.28-.74,0-1.02,.28-.28,.74-.28,1.02,0Z"/>
              <path class="as" d="M190.56,27.42c.28,.28,.28,.74,0,1.02-.28,.28-.74,.28-1.02,0-.28-.28-.28-.74,0-1.02,.28-.28,.74-.28,1.02,0Z"/>
              <path class="as" d="M183.04,29.77c0-.4,.32-.72,.72-.72s.72,.32,.72,.72-.32,.72-.72,.72-.72-.32-.72-.72Z"/>
            </g>
            <g>
              <path class="as" d="M178.62,5.59c-.19-.35-.64-.48-.98-.28-.35,.19-.48,.64-.28,.98,.19,.35,.64,.48,.98,.28,.35-.19,.48-.64,.28-.98Z"/>
              <path class="as" d="M173.62,9.56c-.34-.22-.78-.12-1,.22-.22,.34-.12,.78,.22,1,.34,.22,.78,.12,1-.22,.22-.34,.12-.78-.22-1Z"/>
              <path class="as" d="M171.14,15.72c-.4,0-.72,.32-.72,.72s.32,.72,.72,.72,.72-.32,.72-.72-.32-.72-.72-.72Z"/>
              <path class="as" d="M172.4,22.86c-.28,.28-.28,.74,0,1.02,.28,.28,.74,.28,1.02,0s.28-.74,0-1.02c-.28-.28-.74-.28-1.02,0Z"/>
              <path class="as" d="M176.95,27.42c-.28,.28-.28,.74,0,1.02,.28,.28,.74,.28,1.02,0,.28-.28,.28-.74,0-1.02-.28-.28-.74-.28-1.02,0Z"/>
            </g>
          </g>
          <g>
            <path class="as" d="M183.57,16.44c0-.4,.32-.72,.72-.72s.72,.32,.72,.72-.32,.72-.72,.72-.72-.32-.72-.72Z"/>
            <rect class="as" x="184.2" y="7.4" width=".2" height="9.05"/>
            <rect class="as" x="183.55" y="14.25" width="6.1" height=".59" transform="translate(30.85 118.35) rotate(-38.14)"/>
          </g>
        </g>
        <g>
          <g>
            <path class="v" d="M383.15,269.15c-.14,1.95-2.89,1.97-6,1.6-3.11-.36-2.29,.43-6.65,.49-4.36,.06-5.86-1.38-6.08-2-.19-.55,1.91-1.02,4.16-1.57,.28-.07,.57-.14,.85-.21,2.53-.64,4.21-2.54,6.38-4.2,2.05-1.57,4.7-7.25,4.7-7.25l5.96-.27s-2.51,5.09-3.45,7.28c-.55,1.29-.32,2.88-.08,4.09,.13,.66,.26,1.34,.21,2.02Z"/>
            <path class="ba" d="M377.15,270.76c-3.11-.36-2.29,.43-6.65,.49-4.36,.06-5.86-1.38-6.08-2-.19-.55,1.91-1.02,4.16-1.57l.03,.04s2.81,1.51,6.4,1.15c2.93-.29,5.91-1.52,7.93-1.73,.13,.66,.26,1.34,.21,2.02-.14,1.95-2.89,1.97-6,1.6Z"/>
          </g>
          <g>
            <path class="v" d="M424.29,269.56c-.14,1.95-2.89,1.97-6,1.61-3.12-.36-2.29,.43-6.65,.49-4.36,.07-5.87-1.37-6.08-2-.19-.55,1.91-1.02,4.16-1.57,.28-.07,.57-.14,.85-.21,2.53-.65,4.21-2.54,6.37-4.2,2.05-1.57,0-10.87,0-10.87l6.55-.64s-.31,7.83-.31,11.39c0,1.4,.65,2.75,.89,3.97,.13,.66,.26,1.34,.21,2.02Z"/>
            <path class="ba" d="M418.29,271.17c-3.12-.36-2.29,.43-6.65,.49-4.36,.07-5.87-1.37-6.08-2-.19-.55,1.91-1.02,4.16-1.57l.03,.04s2.81,1.5,6.4,1.14c2.93-.3,5.91-1.52,7.93-1.74,.13,.66,.26,1.34,.21,2.02-.14,1.95-2.89,1.97-6,1.61Z"/>
          </g>
          <path class="ay" d="M405.17,108.86c-1.13-4.64,.51-6.8,1.98-7.95,.7-1.71,1.5-2.94,2.31-3.4,1.49-.85,3.27-.94,4.52-.87-.32-.33-.95-.45-.95-.45,.77-.12,2.5,.65,2.5,.65,10.77-4.15,12.46,11.7,12.23,15.39-.22,3.68-.19,8.02,5.41,10.92,10.69,5.54-3.55,26.4-3.55,26.4,.27-2.98-13.46-18.68-20.63-23.39-1.74-2.57-2.36-7.1-2.41-7.46,.3,3.6,.92,5.61,1.47,6.75-3.27-3.01-3.75-10.22-2.88-16.6Z"/>
          <path class="v" d="M409.42,126.4s3.46,1.83,6.09,1.11c2.47-.67,4.09-3.88,4.05-3.89-1.05-.21-1.35-1.65-1.33-7.83l-.47,.09-7.96,1.58s.18,2.51,.19,4.87c0,1.98-.11,3.86-.57,4.07Z"/>
          <path class="bk" d="M409.81,117.46s.18,2.51,.19,4.87c4.45-.13,6.81-4.19,7.77-6.44l-7.96,1.58Z"/>
          <path class="r" d="M377.42,259.18c-.39,1.22,.49,2.48,1.77,2.54l3.11,.15,3.29,.1c.82,.03,1.61-.33,2.13-.97,2.63-3.22,10.71-13.96,15.62-29.57,.14-.44,.28-.88,.44-1.33,3.24-9.44,9.95-21.3,13.49-32.03,.56-1.71,1.07-3.32,1.52-4.84,.15-.49,.29-.97,.42-1.44,2.61-9.06,3.36-15.01,4.06-21.36l-25.55,.2s-5.38,41.81-20.3,88.54Z"/>
          <path class="h" d="M401.29,155.95c.06,12.16-1.78,17.37-1.78,17.37,0,0,10.94,5.56,23.94,1.47,.15-.05,10.77-2.47,10.77-2.47-.22-.49-2.15-8.69-2.36-9.14-2.75-5.89-4.83-8.48-5.16-10.29-.6-3.38-.62-6.88-.32-10.19,.79-8.74,3.15-16,3.15-16-3.54-.81-6.86-2.22-10.55-3.61-.85,1.06-3.44,2.16-5.69,2.11-2.59-.06-3.43-1.17-3.3-2.38-2.76,1.54-4.96,2.99-4.96,2.99-2.35,4.07-7.1,8.03-7.45,14.28-.09,1.54,3.7,15.5,3.7,15.84Z"/>
          <path class="bc" d="M423.26,157.31c1.12,1.58,3.26,11.19,8.59,12.4-2.75-6.85-4.83-9.85-5.16-11.96-.6-3.93-.62-8-.32-11.83-1.78-3.13-3.11-5.27-3.11-5.27-.14-.51-2.83-8.84-3.7-1.39-.86,7.45,2.45,16.28,3.7,18.05Z"/>
          <path class="v" d="M408.32,119.69s10.54,.17,10.55-6.39c0-6.57,1.37-10.96-5.36-11.35-6.73-.39-8.04,2.12-8.57,4.31-.54,2.19,.64,13.22,3.38,13.44Z"/>
          <path class="ay" d="M408.71,101.79s2.89,7.7,7.31,8.84c4.43,1.14,6.35-.05,6.35-.05,0,0-3.4-2.7-4.1-7.41,0,0-7.39-5.05-9.56-1.38Z"/>
          <path class="ay" d="M409.42,102.41s-2.16,1.72-2.68,3.39c-.53,1.67-.76,5.11-1.76,5,0,0-2.17-5.24,.27-8.2,2.59-3.14,4.18-.19,4.18-.19Z"/>
          <polygon class="v" points="391.73 164.39 386.76 179.57 389.6 180.71 397.83 167.3 391.73 164.39"/>
          <path class="bk" d="M405.16,124.93s-5.87,2.33-7.57,5.96c-1.7,3.63-4.27,27.99-5.3,30.49-1.02,2.5-1.79,4.48-1.79,4.48,0,0,2.96,2.49,5.94,2.68,2.98,.18,8.72-43.61,8.72-43.61Z"/>
          <path class="bk" d="M410,122.84s-6.1,15.06-6.28,18.11c-.18,3.05-.72,49.86-.72,49.86,0,0,.36,2.15-3.77,1.26s-5.2-1.79-5.2-1.79c0,0,3.95-28.87,2.87-38.92-1.08-10.04,8.25-26.42,8.25-26.42l4.84-2.09Z"/>
          <path class="by" d="M382.3,261.87l3.57,.11c.64,.02,1.25-.26,1.66-.75,2.4-2.91,10.78-13.8,15.81-29.8,.14-.44,.28-.88,.44-1.33,3.24-9.44,9.95-21.3,13.49-32.03,.56-1.71,1.07-3.32,1.52-4.84,.15-.49,.29-.97,.42-1.44l-3.76-2.86s-11.3,18.29-14.79,35.51c-3.04,14.95-15.2,32.95-18.35,37.42Z"/>
          <path class="r" d="M415.05,226.05c-.06,7.92,.31,25.57,1.28,34.2,.09,.79,.76,1.39,1.55,1.39h2.67c1.12,0,1.96,0,2.52-.02,.48,0,.9-.35,.99-.83,2.65-13.49,4.55-24.7,5.94-34.38,1.16-8.11,2.19-15.06,2.99-21.04,.8-6.02,1.36-11.06,1.55-15.32,.03-.67,.05-1.32,.07-1.96,.01-.64,.02-1.26,.01-1.86l-22.08-2.15c.28,14.67,2.55,37.1,2.51,41.97Z"/>
          <path class="by" d="M420.55,261.64c1.01,0,1.79,0,2.34-.01,.59,0,1.09-.43,1.2-1,2.63-13.41,4.52-24.57,5.9-34.21,1.16-8.11,2.19-15.06,2.99-21.04,.8-6.02,1.36-11.06,1.55-15.32l-8.1,4.77s5.17,1.82,3.2,15.63c-1.97,13.81-6.35,49.23-9.09,51.19Z"/>
          <path class="bk" d="M419.5,189.91s1.55,5.62,6.93,4.9c5.38-.72,13.03-3.95,13.03-3.95,0,0-2.3-7.26-5.16-16.81-3.46-11.55-7.75-26.45-9.77-35.85-.57-2.63-.95-4.83-1.1-6.41l-4.46-8.66s-6.66,14.94-7.01,18.7c-.36,3.77,7.53,48.06,7.53,48.06Z"/>
          <path class="v" d="M424.88,141.29l-5.89-18.14s7.44,2.21,11.18,4.1c0,0,2.33,3.01,3.78,9.95,0,0,1.53,16.67-1.88,22.77,0,0-10.76,2.15-27.98-3.77v-3.95s18.83,.99,22.69,1.43l-1.89-12.4Z"/>
          <path class="q" d="M419.74,149.74c.24,6.1,1.68,17.93,14.47,24.27,.03,.02,.07,.03,.1,.05-3.46-11.55-7.75-26.45-9.77-35.85-2.35,3.51-4.94,8.17-4.8,11.53Z"/>
          <path class="bk" d="M418.98,123.15s10.92,.77,13.55,6.63c2.63,5.86,3.47,25.35,.12,31.09,0,0-4.61,1.31-12.76-.21-.1-.02-.2-.04-.3-.06,0,0-2.6-6.37-.27-7.62,0,0,6.87,.36,6.16-1.91-.72-2.27-6.5-27.91-6.5-27.91Z"/>
          <g>
            <path class="ay" d="M391.6,154.69l.32,1.03,17.92-5.57s.24-.27,.12-.63c-.13-.4-.44-.4-.44-.4l-17.92,5.57Z"/>
            <polygon class="ay" points="390.31 155.67 391.6 154.69 391.93 155.72 390.31 155.67"/>
          </g>
          <path class="v" d="M387.46,179.15s-4.55,2.51-5.14,4.43c-.6,1.91-.19,5.92,.53,5.86,.72-.06,1.8-4.31,2.4-4.61,.6-.3,1.44-1.2,1.44-.54s-.6,1.85-.3,2.03c.3,.18,1.26-1.67,1.91-2.03,.66-.36,.93-3.32,1.57-4.11,.64-.79-2.41-1.03-2.41-1.03Z"/>
          <path class="v" d="M404.08,152.25s-4.07-2.5-5.77-2.12c-1.71,.39-6.05,3.53-3.96,4.21,2.09,.68,3.78-.03,4.59,.46,.8,.5,1.4,1.4,5.14,1.39,3.75-.01,0-3.95,0-3.95Z"/>
        </g>
        <g>
          <path class="o" d="M84.37,125.35c-.68-1.31,14.87-6.05,15.11,6.92,0,0,29.13-.72,15.22-16.95-4.81-5.62-4.32-10.27-4.18-14.59,.15-4.33-3-16.9-13.78-15.63,0,0-2.82-1.15-6.35,.68-8.01,4.16-25.96,44.36-6.03,39.58Z"/>
          <path class="v" d="M131.99,139.86s1.9-2.89,3.42-2.94c1.53-.06,4.36-.85,4.13-.28-.23,.57-1.98,.62-2.15,.96-.17,.34,2.6,.85,3.4,.91,.79,.06,2.66,0,2.6,.4-.06,.4-3.37,2.04-5.7,1.81-2.34-.23-5.22,.68-5.22,.68l-.48-1.53Z"/>
          <path class="l" d="M104.57,140.79s1.03,2.04,2.9,4.39c2.25,2.82,5.73,6.08,10.09,6.73,2.08,.31,4.12-.14,5.99-.97,0,0,0,0,0,0,5.3-2.35,9.28-7.76,9.28-7.76,.93-2.55-.59-4.27-.59-4.27,0,0-10.7,2.41-11.72,1.9-1.02-.51-6.96-17.63-8.38-19.78-1.42-2.15-6.24-3.27-6.24-3.27l-1.35,23.05Z"/>
          <path class="bj" d="M107.47,145.18c2.25,2.82,5.73,6.08,10.09,6.73,2.08,.31,4.12-.14,5.99-.97-.21,.03-5.5,.68-7.61-3.09-2.15-3.85-4.48-9.96-7.67-7.92-1.38,.88-1.32,3.06-.8,5.26Z"/>
          <path class="ba" d="M64.66,256.26s-3.26,2.98-2.63,5.1c.64,2.12,3.58,3.53,3.98,6.11,.4,2.59,1.99,4,3.42,4h6.83s1.05-1.82-1.49-2.37c-2.55-.55-3.51-3.59-3.35-6.41,.16-2.82-.24-6.58-.24-6.58l-5.41-1.25-1.11,1.41Z"/>
          <path class="ba" d="M92.29,257.52s-1.17,12.62,.26,13.32l18.34-.04s0-2.12-2.95-2.59c-2.95-.47-8.12-2.19-9-6.04-.88-3.84-6.66-4.66-6.66-4.66Z"/>
          <path class="v" d="M79.22,166.99c3.77-8.46,6.08-10.89,5.64-13.52-.33-1.96,1-36.45,1-36.45,.45-.14,1.35-.26,1.84-.37,1.55-.34,2.83-1.43,3.36-2.92,.64-1.8,1.15-4.45,1.14-7.78l.48,.1,8.13,1.61s-.18,2.56-.19,4.97c0,.02,0,.04,0,.06,0,2.09,1.36,3.94,3.37,4.52,1.03,.3,1.92,.55,1.92,.55,0,0,2.98,8.52,3.55,17.27,.57,8.75-5.43,12.56,.05,30.05,5.59,17.87-32.38,6.6-30.3,1.92Z"/>
          <path class="br" d="M100.81,107.64s-.18,2.56-.19,4.97c-4.55-.13-6.95-4.28-7.94-6.58l8.13,1.61Z"/>
          <path class="v" d="M102.33,109.93s-10.76,.18-10.77-6.53c0-6.7-1.4-11.2,5.47-11.59,6.87-.4,8.21,2.16,8.76,4.4s-.66,13.5-3.46,13.72Z"/>
          <path class="o" d="M101.93,91.64s-2.95,7.86-7.47,9.03c-4.52,1.16-6.48-.05-6.48-.05,0,0,3.47-2.76,4.19-7.57,0,0,7.54-5.16,9.76-1.41Z"/>
          <path class="o" d="M101.2,92.28s2.18,.82,3.08,2.41c.88,1.56,1.63,3.62,1.45,6.15,0,0,2.22-5.35-.27-8.37-2.65-3.21-4.26-.2-4.26-.2Z"/>
          <path class="af" d="M99.99,105.77s.74,.98,2.23,.91c1.2-.06,1.66-1.09,1.66-1.09,0,0-2.2-.53-3.89,.19Z"/>
          <path class="l" d="M78.18,132.28s-.27,3.85,0,8.48c.18,3.06,3.28,7.17,3.72,8.19,1.1,2.55,2.35,2.96,2.35,2.96l9.63,2.36,3.39,.83,10.68-3.19s4.86-13.57,2.91-21.21c-1.95-7.64-4.94-12.95-4.94-12.95,0,0-8.71,8.53-20.06-.72l-7.68,15.26Z"/>
          <path class="ca" d="M81,142.01c.18,3.06,.46,5.92,.9,6.93,1.1,2.55,2.35,2.96,2.35,2.96l9.63,2.36,4.18-1.23s-13.96-2.12-12.41-14.13l-4.65,3.1Z"/>
          <path class="q" d="M107.26,153.96s5.29,16.46,5.63,22.06-10.11,79.6-10.53,82.18c-.4,2.43-3.42,3.98-3.42,3.98,0,0-1.39,.82-3.37,.26-2.75-.78-3.62-1.71-3.62-1.71,0,0-4.12-52.77-1.57-71.62,2.55-18.85,2.58-35.15,2.58-35.15h14.31Z"/>
          <path class="bk" d="M84.86,153.47s-8.06,10.82-8.82,18.14c-.75,7.32-1.18,33.01-2.78,40.14-1.6,7.13-7.49,20.85-7.49,43.1,0,0,.61,1.27,2.5,1.95,.6,.22,1.41,.43,2.2,.61,1.56,.36,3.16-.4,3.87-1.84,3.98-8.01,16.65-33.85,17.3-39.21,.46-3.8,4.46-28.92,13.19-43.66,2.1-3.54-1.29-17.61-1.29-17.61l-18.69-1.62Z"/>
          <path class="h" d="M100.23,105.95s.19,.79,2.15,.67c0,0,1.65-.1,1.6-.97,0,0-1.6-.62-3.75,.3Z"/>
          <path class="ba" d="M108.11,151.42s-2.12,1.68-6.34,1.76c-5.04,.1-17.52-1.28-17.52-1.28,0,0-.55,1.55-.53,3.19,0,0,15.24,3.84,24.07,.56,0,0,1.14-2.14,.31-4.23Z"/>
          <path class="h" d="M100.68,154.92c0-1.43,1.03-2.6,2.3-2.6s2.3,1.17,2.3,2.6-1.03,2.6-2.3,2.6-2.3-1.17-2.3-2.6Zm.76,0c0,1.01,.69,1.84,1.54,1.84s1.54-.83,1.54-1.84-.69-1.84-1.54-1.84-1.54,.83-1.54,1.84Z"/>
          <rect class="ay" x="74.61" y="136.34" width="20.71" height="28.34" transform="translate(50.19 319.81) rotate(-138.95)"/>
          <path class="v" d="M87.77,154.45s5.72,.67,5.7,2.03c-.02,1.36-1.43,4.15-2.13,4.27-.71,.12-4.66-3.77-4.66-3.77l1.09-2.53Z"/>
          <path class="l" d="M85.86,117.02s-7.64,.54-10.57,7.65c-2.93,7.12-8.48,19.07-8.48,21.08s3.1,8.21,19.77,11.77c0,0,1.72-1.81,1.62-3.25,0,0-10.4-8.94-10.38-9.98,.05-1.98,1.71-4.58,10.84-13.72,2.48-2.48-2.8-13.56-2.8-13.56Z"/>
        </g>
        <g>
          <g>
            <path class="as" d="M170.26,271.07h-.07c-.43,0-.77-.35-.76-.78l1.15-49.97,3.4-.4-2.9,50.37c-.02,.43-.38,.77-.82,.77Z"/>
            <path class="at" d="M150.47,271.07h-.07c-.43,0-.77-.35-.76-.78l1.15-49.97,3.4-.4-2.9,50.37c-.02,.43-.38,.77-.82,.77Z"/>
            <path class="as" d="M205.08,271.07h.07c.43,0,.77-.35,.76-.78l-1.15-49.97-3.4-.4,2.9,50.37c.03,.43,.38,.77,.82,.77Z"/>
            <path class="as" d="M148.22,217.23v-34.24c0-6.02,4.88-10.91,10.91-10.91h24.67c6.02,0,10.91,4.88,10.91,10.91v35.55l-46.49-1.31Z"/>
            <path class="at" d="M148.22,217.23h50.91v5.41h-47.63c-1.81,0-3.28-1.47-3.28-3.28v-2.13h0Z"/>
            <rect class="as" x="166.38" y="217.23" width="40.88" height="5.41" rx="2.42" ry="2.42"/>
          </g>
          <g>
            <path class="ba" d="M203.44,208.7c-3.53,6.15-7.98,8.53-7.98,8.53h-18.49s29.17-13.22,26.47-8.53Z"/>
            <g>
              <path class="v" d="M189.23,256.29c-.48,.55-.54,1.17-.3,1.83,0,0,0,0,0,0,.44,1.22,1.9,2.58,3.59,3.94,.22,.17,.41,.33,.58,.48,.04,.04,.09,.08,.13,.12,.03,.03,.07,.06,.1,.09,1.58,1.46,.98,1.79,3.82,4.74,3.23,3.36,5.46,3.42,6.09,3.12,.54-.26-.55-2.05-1.76-4.05-.06-.1-.12-.19-.18-.29-.16-.27-.32-.54-.48-.81-1.41-2.41-1.05-3.55-.72-7.14,.27-2.92,4.54-16.31,4.54-16.31l-6.2-1.07s-1.87,10.66-3.92,12.3c-1.1,.88-2.33,.89-3.39,1.53-.07,.05-.15,.09-.22,.14-.6,.4-1.21,.81-1.7,1.36Z"/>
              <path class="ba" d="M189.23,256.29c-.48,.55-.54,1.17-.3,1.83,0,0,0,0,0,0,.54,1.22,1.96,2.57,3.6,3.93,.21,.18,.4,.34,.57,.49,.04,.04,.09,.08,.13,.12,.03,.03,.07,.06,.1,.09,1.58,1.46,.98,1.79,3.82,4.74,3.23,3.36,5.46,3.42,6.09,3.12,.54-.26-.55-2.05-1.76-4.05-.63-.23-3.55-1.42-5.76-4.25-1.95-2.48-3.25-5.68-4.57-7.53-.07,.05-.15,.09-.22,.14-.6,.4-1.21,.81-1.7,1.36Z"/>
              <path class="v" d="M239.2,252.42c.38,1.91,3.11,1.59,6.15,.85,3.05-.74,2.32,.14,6.66-.34,4.33-.48,5.65-2.1,5.78-2.74,.12-.57-2.02-.77-4.32-1.04-.29-.03-.58-.07-.87-.1-2.59-.33-4.49-2-6.85-3.37-2.23-1.3-5.56-6.61-5.56-6.61l-5.94,.47s3.12,4.74,4.33,6.8c.71,1.21,.67,2.81,.58,4.05-.05,.67-.09,1.36,.05,2.03Z"/>
              <path class="ba" d="M245.35,253.27c3.05-.74,2.32,.14,6.66-.34,4.33-.48,5.65-2.1,5.78-2.74,.12-.57-2.02-.77-4.32-1.04l-.02,.04s-2.6,1.84-6.21,1.93c-2.94,.07-6.06-.77-8.09-.74-.05,.67-.09,1.36,.05,2.03,.38,1.91,3.11,1.59,6.15,.85Z"/>
              <path class="ba" d="M216.41,214.4l-5.56,14.95-7.26,19.53s-1.97,.19-3.85-.35c-1.74-.5-3.73-1.81-3.73-1.81,0,0,2.01-20.97,5.77-33,.96-3.09,2.04-5.59,3.23-6.99,5.83-6.89,11.39,7.68,11.39,7.68Z"/>
              <path class="bz" d="M210.76,190.65c-3.64-1.17-14.03,.33-24.46,2.38l-2.18-3.6-22.53-1.76s-7.43,16.49-3.36,26.99c.6,1.54,1.79,2.53,3.81,2.57,0,0,.33,0,.33,0,0,0,13.41,0,17.76,0,11.21,0,23.71-7.7,25.33-8.03,2.65-.53,3.71,4.77,6.36,10.33,2.65,5.56,24.9,24.63,24.9,24.63,0,0,3.42,.03,4.83-.5,1.52-.57,2.07-1.31,2.07-1.31,0,0-24.65-49.05-32.86-51.7Z"/>
              <path class="ba" d="M183.24,123.82c-2.89-1.52-7.28-1.72-7.99-1.82-8.54-1.15-13.68,11.26-13.98,15.02-.56,6.93-4.22,7.99-9.38,12.33-10.35,8.7-7.31,18.81-1.65,22.57,3.39,2.25,9.38,0,9.38,0,.08,.06,16.36-9.1,24.38-13.52,12.03-1.71,6.6-30.72-.75-34.58Z"/>
              <path class="v" d="M177.27,154.64s-3.95,1.38-6.61,.2c-2.51-1.11-4.4-5.23-4.37-5.23,1.14-.05,2.39-1.05,3.35-7.59l.49,.17,8.16,2.94s-.59,2.62-.97,5.11c-.32,2.09-.49,4.1-.05,4.39Z"/>
              <path class="bk" d="M178.29,145.13s-.59,2.62-.97,5.11c-4.69-.84-6.53-5.51-7.19-8.05l8.16,2.94Z"/>
              <path class="v" d="M179.5,147.73s-11.16-1.5-10.12-8.44c1.04-6.94,.3-11.8,7.47-11.14,7.17,.66,8.16,3.52,8.37,5.92,.22,2.4-2.79,13.87-5.72,13.66Z"/>
              <path class="ba" d="M184.82,130.27s-7.15,6.16-12.01,6.66c-4.86,.5-6.7-1.06-6.7-1.06,0,0,2.87-2.38,4.59-6.22,.51-1.13,1.58-1.91,2.82-2.01,3.47-.3,10.05-.44,11.3,2.64Z"/>
              <path class="ba" d="M180.35,129.72s2.39,2.31,3.14,4.03c.73,1.65,.94,5.61,.37,7.18,0,0,3.73-7.24,1.62-10.76-2.24-3.73-5.13-.45-5.13-.45Z"/>
              <path class="h" d="M186.67,171.08c-.34,22.6-.09,17.88-2.56,20.02-.6,.52-2.27,.82-4.47,.97-6.93,.46-19.11-.68-19.58-1.96-1.6-4.43-.47-5.81-1.8-12.59-.14-.72-.31-1.5-.51-2.35-1.11-4.66-2.19-6.24,1.75-13.73,3.58-6.78,7.29-12.28,7.63-12.09,9.44,5.6,10.2,.89,10.2,.89,0,0,9.52,9.82,9.35,20.84Z"/>
              <path class="bz" d="M210.86,229.36l-7.26,19.53s-1.97,.19-3.85-.35c-1.74-.5-3.73-1.81-3.73-1.81,0,0,2.01-20.97,5.77-33l9.07,15.64Z"/>
              <path class="h" d="M177.31,150.24s9.71,1.65,10.85,5.83c1.14,4.18,7.85,28.76,7.85,28.76,0,0-4.94,.89-7.22-1.39-2.28-2.28-7.94-21.16-7.94-21.16l-3.55-12.04Z"/>
              <path class="bt" d="M179.63,192.08c-6.93,.46-19.11-.68-19.58-1.96-1.6-4.43-.47-5.81-1.8-12.59l3.34-9.41s-.55,10.48,2.54,13.24c3.09,2.76,12.66,5.32,14.16,7.62,.72,1.11,1.2,2.21,1.34,3.1Z"/>
              <path class="v" d="M171.69,187.67s6.84-1.52,7.94-.92c1.1,.61,3.8,2.82,4.14,3.59,.34,.77-2.46-.58-3.36-.83-.59-.16-2.14,.38-2.9,.64-3.23,1.08-5.2,.52-5.2,.52l-.6-3Z"/>
              <path class="h" d="M167.11,149.35s-9.18,.57-12.36,5c-4.47,6.24-13.35,32.83-8.26,36.38,5.73,3.99,26.07,1.04,26.07,1.04,0,0,.68-3.16-.26-4.69-.94-1.53-16.25-4-16.95-4.71-.71-.71,8.83-13.77,8.83-15.89s2.94-17.12,2.94-17.12Z"/>
              <path class="v" d="M179.96,188.66s1.43,1.85,1.9,2.07c.47,.22,.77,.17,.77,.17l-.97-1.74-1.71-.5Z"/>
              <path class="v" d="M179.63,186.75l4.16,2.02s-.18,.29-.69,.27c-.51-.02-1.81-.5-1.81-.5l-1.67-1.79Z"/>
            </g>
            <g>
              <g>
                <polygon class="bk" points="181.86 193.55 214.81 193.55 224.72 168.91 191.82 168.91 181.86 193.55"/>
                <polygon class="q" points="215.19 192.59 171.69 192.59 171.69 193.55 214.81 193.55 215.19 192.59"/>
              </g>
              <path class="h" d="M206.49,181.23c.25-.87-.25-1.57-1.12-1.57s-1.77,.7-2.02,1.57c-.25,.87,.25,1.57,1.12,1.57s1.77-.7,2.02-1.57Z"/>
            </g>
          </g>
        </g>
        <g>
          <path class="bu" d="M353.93,271.99h.1c.56,0,1.02-.49,1.01-1.09l-1.52-69.96-4.49-.55,3.83,70.52c.03,.61,.51,1.08,1.08,1.08Z"/>
          <path class="bu" d="M171.85,271.99h-.1c-.56,0-1.02-.49-1.01-1.09l1.52-69.96,4.49-.55-3.83,70.52c-.03,.61-.51,1.08-1.08,1.08Z"/>
          <rect class="bu" x="164.35" y="193.78" width="197.84" height="8.44" rx="2.85" ry="2.85"/>
        </g>
        <path class="w" d="M125.32,73.87c-.73-17.96,14.33-25.94,29.73-25.94s32.15,3.99,33.6,27.88c.93,15.37-7.26,24.82-30.85,24.82-7.96,0-14.14-1.25-18.87-3.49l-11.79,10.48,5.79-14.48c-5.13-4.77-7.3-11.5-7.61-19.26Z"/>
        <g>
          <path class="ba" d="M475.23,271.91s.43-3.37,1.44-5.38c1-2.01,7.39-.73,7.39-.73,0,0,1.28,1.09,1.55,6.2l-10.37-.09Z"/>
          <path class="ba" d="M453.48,271.86c1.5-.92,.65-7.75,.65-7.75,0,0-6.99-5.59-7.95-1.31-.96,4.28-6.64,6.2-9.87,6.73-2.23,.36-2.92,1.6-3.14,2.33h20.32Z"/>
          <path class="be" d="M467.96,222.18c-.28,1.57-.47,2.85-.51,3.78-.65,12.68-10.67,41.66-12.46,42.33-2.77,1.05-7.14-1.18-9.42-1.91-.95-.3-1.59-1.26-1.38-2.23,4.96-22.81,6.79-55.66,7.45-75.11,.34-9.8,2.02-16.56,2.02-16.56,0,0,24.44-6.52,24.58,1.73,.13,7.3-8.09,35.92-10.27,47.96Z"/>
          <path class="ba" d="M467.96,222.18l-16.33-33.13c.34-9.8,2.02-16.56,2.02-16.56,0,0,24.44-6.52,24.58,1.73,.13,7.3-8.09,35.92-10.27,47.96Z"/>
          <path class="be" d="M462.52,174.25l12.92,93.63s5.67,1.37,10.09,.27c0,0,3.78-49.8,3.47-61.84-.32-12.04,2.71-32.21-.69-34.44-3.41-2.23-25.78,2.37-25.78,2.37Z"/>
          <path class="l" d="M490.82,172.69c.06,.85-.48,1.62-1.29,1.85-1.8,.52-3.88,.89-7.89,1.72-3.76,.78-8.83,1.47-15.05,1.51-9.9,.06-13.64-3.35-13.64-3.35-.43,0,.22-2.06,.81-11.91,.2-3.34,.39-7.56,.53-12.91,.12-4.81,.21-10.52,.22-17.3,.01-8.15,12.63-16.92,12.86-16.92h0c0,1.18,1.85,3.34,4.7,3.53,3.38,.22,7.53-1.46,7.53-3.41,0-.02,6.11,9.78,8.29,20.22,1.1,5.26,.65,5.11,2.93,36.96Z"/>
          <path class="l" d="M467.37,115.38s-11.73-.1-14.56,3.86c-2.82,3.96-9.02,25.27-5.78,32.36,3.23,7.09,9.28-2.93,12.63-7.28,3.36-4.34,7.71-28.94,7.71-28.94Z"/>
          <path class="v" d="M467.25,113.59v1.21s-.32,3.79,4.35,4.35c4.67,.56,8.14-.71,8.01-3.64-.42-2.27-.81-4.59-.84-6.47-.01-.7,.04-1.44,.17-2.27l-9.05-.18-2.67,.44,.03,6.56Z"/>
          <path class="av" d="M467.22,107.03l.03,6.56c.96,.45,2.05,.72,3.26,.72,4.16,0,6.85-3.05,8.25-5.26-.01-.7,.04-1.44,.17-2.27l-9.05-.18-2.67,.44Z"/>
          <path class="v" d="M479.63,105.32c-1.05,5.65-8.34,5.47-11.49,5.11-.89-.1-1.44-.21-1.44-.21-1-.27-1.56-1.84-1.82-3.91-.51-4.08,.14-10.08,.83-11.61,1.04-2.31,2.99-4.8,10.34-3,7.35,1.8,4.94,6.38,3.59,13.62Z"/>
          <path class="bj" d="M455.37,131.26s-4.54,10.02-4.41,13.03c0,0,2.25-.08,4.41,.57,3.55,1.06,0-13.59,0-13.59Z"/>
          <path class="ba" d="M463.44,89.32s3.23-.25,7.05-1.91c3.09-1.35,7,.14,8.27,.8-.03-.2-.12-.48-.31-.76,0,0,.57,.4,.65,.97,.06,.04,.08,.07,.07,.08,0,0,.65-.12,1.06,.07,0,0-.29-.04-.39,.15-.01,.02-.03,.04-.05,.05,4.83,2.33,5.27,9.96,3.72,11.73-1.87,2.12-4.69,6.93-4.69,6.93,0,0-.24-1.15,.1-3.02,.34-1.87-1.27-1.87-3.31-2.72s-.34-3.23-2.12-4.67c-1.78-1.44-8.33-.59-8.24-1.7-2.43-.88-1.8-5.75-1.8-6Z"/>
          <path class="bj" d="M481.11,150.03c-1.92,7.69-22.63,11.67-27.34,12.48,.2-3.34,.39-7.56,.53-12.91l26.81,.43Z"/>
          <path class="v" d="M476.56,152.53c.2,0,4.61-.66,5.4-1.05s4.4-5.53,2.04-6.84c-2.36-1.32-8.71,3.95-8.71,3.95l1.28,3.95Z"/>
          <path class="l" d="M449.75,154.06s17.05,.92,28.49-1.53c0,0,.29-3.31-3.31-4.77,0,0-17.83-3.78-22.12-2.73-4.28,1.05-3.07,9.03-3.07,9.03Z"/>
          <path class="l" d="M488.9,140.68c-3.54,4.27-8.16,7.75-13.26,8.57h0c-.04-.07-1.54-2.35-1.26-5.7,.13-1.55,.64-3.33,1.86-5.23,.37-.58,.71-1.26,1-2.02,2.78-7.1,2.37-20.8,2.37-20.8,0,0,11.83,1.24,15.51,6.5,2.26,3.22-.62,11.93-6.21,18.67Z"/>
          <path class="av" d="M468.13,110.43c-.89-.1-1.44-.21-1.44-.21-1-.27-1.56-1.84-1.82-3.91,1.88,.46,2.73,1.91,3.09,2.53,.16,.28,.19,.9,.17,1.59Z"/>
          <path class="v" d="M463.37,113.63s-4.08-6.74-.91-7.03c3.18-.29,4.45,1.86,4.91,2.65,.46,.79-.12,4.35-.12,4.35l-3.88,.04Z"/>
          <path class="l" d="M478.93,143.32c-.13,.85-.38,1.64-.7,2.34-1,2.21-2.6,3.58-2.6,3.58h0c-10.61-4.79-12.75-21.23-13.11-30.26-.14-3.63,0-6.07,0-6.07,4.78-1.58,6.13,1.17,6.13,1.17,0,0,5.65,13.43,8.58,22.21,1.12,3.36,1.84,6.04,1.7,7.02Z"/>
          <path class="bj" d="M488.9,140.68c-3.54,4.27-8.16,7.75-13.26,8.57h0c-10.61-4.79-12.75-21.23-13.11-30.26,0,0,5.02,18.2,11.85,24.57,1.23,1.15,2.53,1.91,3.86,2.11,0,0,8.61-2.43,10.42-4.73,.13-.16,.21-.25,.24-.26Z"/>
        </g>
        <g>
          <g>
            <polygon class="bz" points="295.72 193.78 262.77 193.78 252.86 169.13 285.76 169.13 295.72 193.78"/>
            <polygon class="bz" points="262.39 192.82 305.89 192.82 305.89 193.78 262.77 193.78 262.39 192.82"/>
          </g>
          <path class="h" d="M271.09,181.46c-.25-.87,.25-1.57,1.12-1.57s1.77,.7,2.02,1.57c.25,.87-.25,1.57-1.12,1.57s-1.77-.7-2.02-1.57Z"/>
        </g>
      </g>
    </g>
  </g>
</svg>