<?xml version="1.0" encoding="utf-8"?>
<!-- Generator: Adobe Illustrator 26.5.0, SVG Export Plug-In . SVG Version: 6.00 Build 0)  -->
<svg version="1.1" id="Capa_1" xmlns="http://www.w3.org/2000/svg" xmlns:xlink="http://www.w3.org/1999/xlink" x="0px" y="0px"
	 viewBox="0 0 150 150" style="enable-background:new 0 0 150 150;" xml:space="preserve">
<style type="text/css">
	.st0{fill:#FFFFFF;}
	.st1{fill:#22376C;}
</style>
<circle class="st0" cx="75" cy="75" r="75"/>
<g>
	<circle class="st1" cx="100.9" cy="104.3" r="20.7"/>
	<path class="st1" d="M34.5,31.1c-8.1,8.1-8.1,21.2,0,29.3s8.1,21.2,0,29.3s-8.1,21.2,0,29.3s21.2,8.1,29.3,0s8.1-21.2,0-29.3
		s-8.1-21.2,0-29.3s8.1-21.2,0-29.3S42.6,23,34.5,31.1z"/>
	<g>
		<path class="st1" d="M91.6,47.5c0,4.1,3.4,7.5,7.5,7.5s7.5,3.4,7.5,7.5s3.4,7.5,7.5,7.5s7.5-3.4,7.5-7.5s-3.4-7.5-7.5-7.5
			s-7.5-3.4-7.5-7.5s-3.4-7.5-7.5-7.5S91.6,43.4,91.6,47.5z"/>
		<circle class="st1" cx="84.1" cy="32.5" r="7.5"/>
	</g>
</g>
</svg>
