<svg width="37" height="37" viewBox="0 0 37 37" fill="none" xmlns="http://www.w3.org/2000/svg">
<path d="M8.28205 36.9992H0.611161V12.2967H8.28205V36.9992ZM4.44248 8.92708C1.98958 8.92708 0 6.89538 0 4.44248C1.75568e-08 3.26426 0.468045 2.1343 1.30117 1.30117C2.1343 0.468045 3.26426 0 4.44248 0C5.6207 0 6.75066 0.468045 7.58378 1.30117C8.41691 2.1343 8.88496 3.26426 8.88496 4.44248C8.88496 6.89538 6.89455 8.92708 4.44248 8.92708ZM36.9917 36.9992H29.3374V24.9742C29.3374 22.1083 29.2796 18.4331 25.3491 18.4331C21.3609 18.4331 20.7497 21.5467 20.7497 24.7677V36.9992H13.0871V12.2967H20.4442V15.6664H20.5515C21.5756 13.7255 24.0773 11.6773 27.8095 11.6773C35.5729 11.6773 37 16.7896 37 23.4298V36.9992H36.9917Z" fill="white"/>
</svg>
