<?xml version="1.0" encoding="utf-8"?>
<!-- Generator: Adobe Illustrator 26.5.0, SVG Export Plug-In . SVG Version: 6.00 Build 0)  -->
<svg version="1.1" id="Capa_1" xmlns="http://www.w3.org/2000/svg" xmlns:xlink="http://www.w3.org/1999/xlink" x="0px" y="0px"
	 viewBox="0 0 30 30" style="enable-background:new 0 0 30 30;" xml:space="preserve">
<style type="text/css">
	.st0{fill:#FFFFFF;}
	.st1{fill:#0D3274;}
</style>
<circle class="st0" cx="15" cy="15" r="15"/>
<path class="st1" d="M10.5,22.9H7.3V12.4h3.3C10.5,12.4,10.5,22.9,10.5,22.9z M8.9,10.9c-1.1,0-1.9-0.9-1.9-1.9c0-0.5,0.2-1,0.6-1.3
	C7.9,7.2,8.3,7,8.9,7c0.5,0,1,0.2,1.3,0.6c0.4,0.4,0.6,0.9,0.6,1.3C10.8,10,10,10.9,8.9,10.9z M22.8,22.9h-3.2v-5.2
	c0-1.2,0-2.8-1.7-2.8S16,16.2,16,17.6V23h-3.3V12.4h3.2v1.5H16c0.4-0.9,1.6-1.7,3.1-1.7c3.3,0,4,2.2,4,5L22.8,22.9L22.8,22.9z"/>
</svg>
